<?xml version="1.0" encoding="UTF-8" standalone="no"?>
<svg
   xmlns:dc="http://purl.org/dc/elements/1.1/"
   xmlns:cc="http://creativecommons.org/ns#"
   xmlns:rdf="http://www.w3.org/1999/02/22-rdf-syntax-ns#"
   xmlns:svg="http://www.w3.org/2000/svg"
   xmlns="http://www.w3.org/2000/svg"
   xmlns:sodipodi="http://sodipodi.sourceforge.net/DTD/sodipodi-0.dtd"
   xmlns:inkscape="http://www.inkscape.org/namespaces/inkscape"
   viewBox="0 0 832 560"
   version="1.1"
   id="svg2"
   inkscape:version="0.91 r"
   sodipodi:docname="jersey.svg">
  <metadata
     id="metadata73">
    <rdf:RDF>
      <cc:Work
         rdf:about="">
        <dc:format>image/svg+xml</dc:format>
        <dc:type
           rdf:resource="http://purl.org/dc/dcmitype/StillImage" />
        <dc:title></dc:title>
      </cc:Work>
    </rdf:RDF>
  </metadata>
  <defs
     id="defs71" />
  <sodipodi:namedview
     pagecolor="#ffffff"
     bordercolor="#666666"
     borderopacity="1"
     objecttolerance="10"
     gridtolerance="10"
     guidetolerance="10"
     inkscape:pageopacity="0"
     inkscape:pageshadow="2"
     inkscape:window-width="1920"
     inkscape:window-height="1143"
     id="namedview69"
     showgrid="false"
     inkscape:zoom="1.5721154"
     inkscape:cx="406.88442"
     inkscape:cy="262.07649"
     inkscape:window-x="0"
     inkscape:window-y="0"
     inkscape:window-maximized="1"
     inkscape:current-layer="parishesjsy" />
  <!-- svg generated using QGIS www.qgis.org -->
  <g
     id="parishesjsy"
     inkscape:groupmode="layer"
     inkscape:label="parishesjsy">
    <g
       stroke="rgb(0,0,0)"
       fill="rgb(211,223,132)"
       stroke-linejoin="round"
       stroke-width="0.26"
       id="g5">
      <g
         id="parishesjsy_1">
        <path
           d="m 666,439 c 2.95832,7.65606 8.08972,-1.46244 12,5 4.56813,2.86952 9.08294,5.70913 13,9 5.04846,6.06605 4.50322,6.40735 11,4 7.14919,-0.33187 5.93307,3.21155 9,8 3.76925,2.9829 4.17745,9.64043 6,14 3.94745,3.85818 3.87338,8.36003 3,15 -1.37962,7.92164 4.16021,9.24135 2,16 -4.7831,-1.55023 -7.75619,-4.91048 -13,-6 -4.9606,-2.75611 -6.42706,-2.85623 -12,-5 -4.96552,-2.03448 -8.56163,-5.43837 -15,-6 -5.62612,-1.15051 -9.44307,-3.22542 -16,-1 -6.11686,0.20142 -10.02562,2.96515 -13,7 -7.26495,0.10124 -8.32879,7.94892 -16,3 -8.77807,-0.85451 -18.08594,0.46022 -20,7 2.02813,5.1254 -7.51839,3.33093 -3,9 1.42603,7.62057 -1.21485,1.37452 -8,3 -5.19786,2.64875 -8.23832,1.40426 -14,0 -0.29744,6.22602 -1.69335,-0.63854 -5,-4 -3.59483,-2.92241 -7.18078,-6.73845 -9,-11 -4.46731,-3.12176 -7.2404,-9.17053 -10,-14 -2.33053,-4.40401 -6.81668,-8.44878 -9,-13 -4.16413,-1.85574 -6.05392,-7.77782 -9,-11 -3.16064,-4.06147 -6.58554,-7.65023 -12,-11 -3.95282,-3.30755 -11.26213,-3.62466 -2,-7 2.6594,-4.39315 8.98209,-4.84442 11,0 -4.76322,5.5755 10.04021,5.99298 10,4 6.00199,4.82144 2.52347,-4.32206 10,-3 5.93423,0.23351 6.61463,-4.90677 9,-9 4.39717,-1.63676 11.0589,-2.76335 16,-4 1.78597,-1.82554 3.26253,15.8587 12,7 1.49574,6.96081 3.49983,12.95481 7,16 5.6785,5.48825 11.54837,-0.5607 9,3 -4.29281,8.07325 3.60751,2.15272 5,-1 4.80453,2.27137 6.38252,-3.30532 13,-7 4.82267,-5.90942 14.88289,-6.75835 14,-16 2.965,-1.15517 11.45053,-5.70761 14,-1 z"
           id="path8"
           inkscape:connector-curvature="0"
           style="fill:#cccccc;fill-opacity:1;stroke-width:1.4;stroke-miterlimit:4;stroke-dasharray:none;stroke:#6e6e6e;stroke-opacity:1"
           inkscape:label="path_saint_clement" />
      </g>
      <g
         id="parishesjsy_2">
        <path
           d="m 632,223 c 5.16838,3.46853 11.49229,7.28856 11,13 0.25849,6.39969 -7.47905,11.85034 -3,12 -4.1081,4.87954 -0.26556,10.24718 -6,12 1.95044,3.95423 -0.36689,10.91747 5,14 4.99954,-1.8545 3.66269,6.60641 13,2 5.54907,0.74924 8.56175,13.19612 3,16 -6.45155,2.5176 -14.2344,1.37224 -16,7 -4.31486,1.43754 -11.79718,2.4713 -8,9 -0.0983,9.04664 10.07718,2.68644 14.86483,5 4.77405,0.009 15.36303,0.20957 19.13517,0 6.66215,0.97728 11.53348,0.52578 14,-6 9.96931,-0.60669 0.27317,-2.89791 7,-2 4.74922,2.49166 9.66915,7.21222 15,9 5.98038,1.37518 5.57555,4.89097 8,10 1.11424,7.99108 -0.75579,12.04509 -8,14 -1.52657,-1.90987 -8.22465,-4.85794 -13,-7 -7.87314,0.69021 -9.87139,-6.30468 -17,-2 -8.9425,5.89452 -20.46016,10.65105 -32,7 -6.36361,-4.25866 -6.30024,8.32793 -15,7 0.61175,7.86768 4.78466,9.62761 6,17 2.25272,4.36415 1.2124,15.38876 -2,19 -1.65391,-7.92164 -9.05074,-2.41857 -10,3 -4.88742,4.03521 1.23472,11.5861 0,17 2.70027,6.93803 -1.14966,10.5356 2,17 2.08689,7.22037 -1.70406,9.27403 -8,12 3.36158,5.45447 -6.97297,6.16514 -12,9 -2.48955,-3.2785 -6.89771,0.64477 -12,2 -5.3629,1.50043 -14.04144,1.37522 -14,6 -1.22943,7.64854 -10.63692,5.21436 -11,6 -1.1417,8.30846 -5.51241,-0.11742 -8,5 -8.38273,-0.80356 -8.83767,-4.0815 -10,-9 -5.03712,-2.56729 -8.39023,2.98909 -13,5 -3.53353,6.64373 -4.12829,-0.83485 -4,2 1.25375,-5.39546 -3.83036,-10.01716 -4,-16 -0.71917,-10.90369 12.27154,-3.01216 10,-1 -4.77091,-8.10063 4.0671,-3.3343 7,-8 -3.34808,-9.85174 8.64065,-12.46293 0.68137,-18.31863 C 532.06719,405.50043 547.01209,402.88815 546,399 c -0.59632,-4.19131 -7.01376,-11.04602 -11,-7 -6.4138,2.1778 -11.94102,4.0865 -10,-3 -3.54167,-4.79166 -3.14986,-13.51681 -3,-22 5.30201,-3.31341 8.25892,-11.36148 9,-17 1.16203,-4.43708 0.404,-8.96537 7,-10 1.31889,-5.00073 9.55663,-4.41849 10,-10 -2.33198,-9.62992 7.83582,-4.56337 12,-11 6.87422,-3.63605 8.25279,-12.29577 9,-16 1.49581,-9.45754 -10.49147,-10.90241 -6,-20 0.45151,-6.29901 -2.56942,-14.88552 6,-14 7.40522,5.1669 7.06063,-3.17705 12.66795,-2.16602 9.0339,5.00433 8.88779,-9.8872 3.33205,-7.83398 3.42057,2.11617 10.8243,1.18447 14,-2 3.70687,-3.7346 8.02377,-3.22077 9,-10 -3.30308,-5.65674 1.62201,-11.15098 0,-16 -4.73077,-4.16988 4.39468,-4.909 5,-8 11.33637,2.89691 -2.65627,-7.91846 9,-8 2.57301,4.36599 3.51182,9.32871 10,8 z"
           id="path11"
           inkscape:connector-curvature="0"
           style="fill:#cccccc;fill-opacity:1;stroke:#6e6e6e;stroke-opacity:1;stroke-width:1.4;stroke-miterlimit:4;stroke-dasharray:none"
           inkscape:label="path_st_saviour" />
      </g>
      <g
         id="parishesjsy_3">
        <path
           d="m 710,326 c 1.3908,7.8341 12.69768,4.69837 17,3 3.69125,-5.29763 6.82066,9.00429 11,5 7.95216,1.43318 1.00071,-11.20954 9,-4 5.67168,5.27568 -4.89775,8.9171 -1,16 -0.37121,7.32183 3.53044,11.80656 -1,16 -1.93336,4.39997 -3.99972,8.66694 -5,14 -1.87659,4.45675 -3.20537,9.4613 -3,16 -1.97007,5.67899 -0.74141,10.13747 -2,15 0.19864,5.10839 -0.19005,9.9002 1,16 -0.18912,7.52246 1.81159,12.85508 2,20 2.27823,4.05511 1.77426,10.89241 4,15 1.91871,5.93667 2.24181,7.94086 3,14 0.3214,7.01194 2.78078,11.88589 4,18 0.33938,2.39214 2.82667,8.42094 4,13 -3.72171,2.61163 -6.11193,6.55473 -11,8 -1.66621,-0.61156 -9.33471,4.61064 -5,10 4.10346,6.67484 3.34349,3.28379 -2,0 -0.96158,-4.58612 -5.0024,-2.72823 -4,-3 -0.14412,-0.12001 -1.19955,-2.64087 -6,-6 -5.61399,-1.72514 -1.01246,-9.2954 -5,-13 -1.21225,-7.08942 2.6763,-12.35278 -1,-17 -2.99683,-3.83805 -3.06718,-9.13121 -6,-14 -3.47133,-4.83529 -5.39825,-12.23601 -7,-10 -5.166,-3.22735 -9.90736,3.3179 -12,-1 -2.02024,-5.67076 -9.08447,-6.96553 -12,-11 -5.06912,-5.41158 -9.35412,-3.90018 -13,-4 -4.40763,-7.34222 -7.31223,-4.06313 -14,-4 -4.56606,2.05785 -3.02523,9.47495 -8,12 -7.66167,2.6366 -14.04551,10.52074 -19,14 -3.69557,-5.30906 -6.31227,8.19847 -10,3 7.91518,-7.62447 -1.65058,-0.72794 0,-5 -9.35688,0.14495 -10.61458,-4.44928 -13,-13 1.61017,-6.89938 -14.40168,2.35975 -11,-10 -1.03155,-8.0527 6.06061,2.15689 10,-4 7.49056,-0.22918 8.39499,-5.99051 11,-8 7.24991,-4.04842 5.51372,-6.7506 4,-15 -0.6127,-4.60369 0.43452,-10.47431 -1,-17 -2.72234,-5.64015 -2.21511,-12.3689 2,-17 2.98204,-9.47418 8.61626,5.27512 10,-2 2.08,-7.85121 1.17284,-16.79681 -2,-22 -1.33719,-3.03534 -8.2416,-12.14038 1,-13 6.4575,-2.91715 5.85738,-9.00338 15,-4 12.0577,2.21357 21.20009,-5.65378 30,-9 6.35072,-0.74002 10.5161,3.23999 17,5 7.15056,-0.47137 8.1002,8.57978 14,3 5.78628,-0.025 2.48933,-7.67796 5,-10 z"
           id="path14"
           inkscape:connector-curvature="0"
           style="fill:#cccccc;fill-opacity:1;stroke-width:1.4;stroke-miterlimit:4;stroke-dasharray:none;stroke:#6e6e6e;stroke-opacity:1"
           inkscape:label="path_grouville" />
      </g>
      <g
         id="parishesjsy_4">
        <path
           d="m 697,161 c 4.70626,2.0529 7.03712,1.52792 10,4 -0.25865,-2.08647 8.06377,0.21422 8,-2 0.91484,-1.03537 5.11125,1.29719 7,4 1.37146,6.5911 3.8288,0.03 5,2 -1.52741,-4.68188 6.90609,-4.03739 6,0 0.76804,1.11057 2.80465,0.92556 5,7 1.06293,-0.60208 4.66513,2.33381 11,2 3.4879,2.17504 6.42486,2.42579 8,-2 -0.31897,-4.24543 7.27765,1.12985 8,2 -4.15565,3.835 -5.53586,2.3821 -4,6 1.88099,-0.0978 4.22783,7.93169 3,6 1.04173,2.36913 2.34772,12.56975 1,10 -0.26967,4.76227 1.54766,11.88824 4,10 0.7737,2.35314 6.44436,2.46333 5,4 3.45243,4.2658 13.08755,2.19537 18.76913,7.58971 4.39326,1.73228 19.00146,6.51302 15.23087,8.41029 -5.91057,-4.23039 -15.0013,-7.40375 -22,-11 -6.42385,-4.37608 -12.09825,7.12257 -14,4 -8.66161,-1.38706 -5.82288,5.4931 -10,6 -4.28907,2.19572 -6.14647,6.29999 -3,8 -0.11632,4.46412 -4.22071,3.60405 -7,9 -4.58201,0.26279 -3.96293,1.86038 -5,8 -1.66976,7.4847 2.72828,12.93433 7,15 3.64947,2.68387 2.46103,10.20564 8,11 6.21579,-1.90265 7.98371,-2.25266 6,1 -5.45654,-2.24129 -5.19755,5.95738 -4,11 1.79067,3.99662 12.54573,2.63137 11,4 1.57992,-0.55673 -4.9e-4,8.8518 0,7 -1.26188,1.46964 -5.80565,5.44196 -4,13 1.9711,7.13569 5.45871,3.38181 9,5 4.14192,3.71346 5.34519,4.83749 8,9 1.61589,0.54179 -5.68894,2.64115 -3,8 4.72927,2.84786 -0.46561,7.84367 -4,7 -5.03476,0.75059 -6.83117,7.67548 -10,11 1.30757,-5.68402 8.65672,-7.4655 6,-15 -8.3653,-0.25201 -13.26033,5.70803 -20,7 -6.27429,2.17613 -11.47043,8.24455 -9,7 -2.93727,-5.39259 -4.72106,-14.07244 0,-19 3.25076,-3.05431 -6.60569,-12.3585 -6,-6 1.98905,5.88968 -8.1137,5.9843 -10,1 -2.43993,-7.0834 -7.05476,0.72218 -13,0 -10.48,1.3523 -9.43507,-8.36068 -13,-14 -0.015,-1.78739 -8.62707,-3.78873 -12,-7 -3.10837,-2.71629 -13.84247,-8.50297 -10,-4 0.0537,-2.27689 -7.41029,4.36392 -11,7 -3.9411,0.62269 -9.59509,0.12259 -16,0 -9.89517,0.47607 -15.28722,-0.67483 -25,0 -1.29746,-6.46363 -3.85274,-11.84899 3,-13 6.1228,-0.54387 5.98719,-7.34615 14,-6 6.81206,-1.06217 11.35631,-5.61948 8,-13 -1.16184,-8.99433 -10.59844,-1.57552 -15,-5 2.22735,-3.72296 -9.17937,-1.72446 -7,-10 -3.68928,-5.73006 5.63633,-6.11917 1,-13 9.84075,-2.49853 -2.56192,-6.89305 5,-9 2.28626,-7.09199 3.11556,-12.39892 -2,-16 -3.34974,-6.39999 -13.94009,-2.44134 -15,-10 -5.13484,-4.54108 -3.48913,-12.94052 -5,-19 6.82569,-0.36848 12.38244,4.9024 11.83398,-4.66795 C 631.12222,187.9342 633.37586,182.66046 636,179 c -3.52679,-4.75096 -1.48639,-10.09454 2,-13 3.0001,-5.87031 4.95454,-7.30125 10,-5 7.51256,0.18698 12.98253,2.96901 20,3 5.29335,-0.80985 9.55224,-4.45919 16,-2 3.71054,-0.11619 12.82489,-6.65391 13,-1 z"
           id="path17"
           inkscape:connector-curvature="0"
           style="fill:#cccccc;fill-opacity:1;stroke-width:1.4;stroke-miterlimit:4;stroke-dasharray:none;stroke:#6e6e6e;stroke-opacity:1"
           inkscape:label="path_st_martin" />
      </g>
      <g
         id="parishesjsy_5">
        <path
           d="m 516,66 c 4.61754,1.902915 9.5028,0.307628 7,1 1.84999,3.360084 2.71538,5.074538 6,7 1.92859,0.794312 5.83613,0.223225 6,-1 2.51714,-0.37974 5.3077,-2.194194 7,1 5.89626,0.542541 8.30548,12.924615 7,11 3.04355,1.118416 -4.32035,6.813177 3,9 -1.51415,2.142777 8.52028,3.472324 5,6 4.78496,4.33578 3.6236,5.78597 8,4 1.96684,-3.94277 3.76722,-3.78424 4,0 -1.64108,2.09956 1.41202,8.63577 -1,8 2.3574,5.81099 6.0631,4.04046 4,9 -1.14917,4.78268 4.18109,4.4911 4,11 1.92879,2.7939 -0.76708,1.67083 4,7 5.22132,-1.217 -2.56333,1.91173 -2,7 2.5161,0.97169 0.42487,6.15974 10,6 5.47311,1.29376 7.22701,2.709 10,5 4.20305,1.68406 5.79779,2.10933 6,0 -0.50028,-0.30012 6.86436,2.12836 6,3 6.94656,-3.27583 6.31065,2.00511 9,-4 8.27121,2.35206 9.77765,-1.57243 7,-2 0.14927,-0.58513 -2.77666,-3.75554 2,-6 1.99645,2.59936 7.33014,3.73397 9,0 -2.3633,-6.13152 1.06374,1.79047 4,-2 1.62053,-0.76497 10.44281,1.29058 8,1 4.43787,-2.95658 5.97794,-6.15478 7,-3 4.46101,3.37654 5.29529,-1.32006 2,-5 2.83024,2.33583 1.478,-1.36042 4,-4 -0.11861,0.5263 6.9587,1.48874 4,-1 0.88892,0.005 4.28457,-1.04412 7,-3 4.6489,-2.83445 -2.87358,-2.96113 3,-8 1.82088,6.76307 4.70491,6.36028 2,6 2.56752,0.64346 -4.32411,13.46346 0,7 0.83991,5.05958 1.90376,6.00371 3,4 2.06955,-0.62759 4.61084,3.75492 8,4 0.78604,2.44574 8.82716,-2.57206 6,-3 1.9533,-3.42947 5.27107,1.11732 8,-1 -0.9655,5.36934 -3.54493,2.1411 -3,6 -3.22906,5.35897 -2.16536,2.30555 0,9 -4.31326,-6.55347 -3.35188,4.75316 -7,4 -5.69551,2.9154 -9.87645,2.88942 -17,2 -2.477,2.82657 -11.22251,3.69308 -15,2 -5.83655,-0.18318 -13.23079,-3.98313 -17,-2 -2.62613,-3.22768 -6.10778,5.83431 -9,8 -1.87156,4.8311 1.66142,8.91796 -1,14 -2.61236,4.7578 -3.93184,11.2568 -4,18 -2.98186,-1.82449 -14.7861,-4.0865 -10,3 2.83457,7.97087 -1.91002,11.95108 -3,16 5.14662,5.79882 -9.8948,1.24753 -7,7 -9.35298,-0.70295 3.0897,7.94144 -3,11 0.14284,6.96016 1.94525,11.08987 -2,15 -4.37474,0.45216 -5.06567,7.38575 -13,6 -7.63243,3.69294 -6.31009,-3.65627 -2.83398,4.66795 C 588.00931,273.5368 575.35453,260.41925 577,271 c -3.82628,-0.75059 -13.56459,-4.22463 -14,2 1.31539,7.67823 -3.54988,15.66883 2,20 3.78106,1.72518 6.54197,14.19171 0,11 -4.6606,0.54571 -2.32466,-5.53958 -8,-7 2.21694,-9.10823 -5.63408,-7.26144 -11,-5 -7.51729,0.0999 -18.05011,0.70176 -8,-6 0.48617,-2.49544 -13.00257,-13.10459 -9,-2 2.82935,10.2536 -5.63549,8.38287 -10,8 -11.51443,-2.63735 -3.75134,4.49382 -9,8 -2.0393,8.41778 -5.53625,-4.14548 -11,-3 -7.51902,-0.98581 -8.98728,-6.24333 -6,-12 -1.49696,-4.14363 -8.63382,-2.67255 -15,-1 -4.07418,-6.08757 0.86671,-13.68824 -2,-21 -2.61026,-3.67354 -3.24573,-9.51449 -4,-16 6.4874,-2.12313 12.98873,-0.41533 19,-3 -1.13255,-9.44187 1.94759,-18.4382 1,-26 1.64378,-7.79506 -8.29703,-9.01207 -4,-17 2.62733,-6.9566 -7.82785,-12.609 -1,-14 2.03813,-2.29066 0.65443,-10.85619 0,-17 -4.76881,-7.68087 6.64888,-7.53673 2,-14 3.4766,-11.02601 -8.85564,-2.30651 -6,-12 -3.51564,1.79252 -12.26687,0.4313 -6,-8 -0.3377,-7.2624 10.6841,-0.61648 5,-11 0.7052,-8.83985 -1.93116,-16.66092 1,-23 5.95365,-2.71691 9.26278,-7.103024 15,-9 1.06123,-2.418646 9.40285,0.05155 7,-4 0.66051,-3.683858 5.71606,-11.348376 4,-9 -1.35305,-4.774285 -0.0205,-4.946095 1,-8 2.35583,-0.816683 1.85359,-5.638148 6,-6 z"
           id="path20"
           inkscape:connector-curvature="0"
           style="fill:#cccccc;fill-opacity:1;stroke-width:1.4;stroke-miterlimit:4;stroke-dasharray:none;stroke:#6e6e6e;stroke-opacity:1"
           inkscape:label="path_trinity" />
      </g>
      <g
         id="parishesjsy_6">
        <path
           d="m 109,38 c 2.36855,5.521483 -0.23135,4.210561 1,8 -2.13367,3.67218 2.48316,3.533311 6,6 4.18414,-3.062883 3.16893,4.648201 7,3 3.63522,-0.988647 4.09072,2.066314 7,8 -1.38719,7.267339 3.17648,-3.06355 7,1 -1.79416,3.017273 0.19883,4.805361 5,4 5.0512,-0.77414 0.9747,3.291466 5,2 4.67107,5.615778 4.1546,0.14278 7,4 0.54307,-4.440003 8.94938,1.361327 7,-1 -0.64784,8.780877 2.98885,4.367987 3,12 3.3582,-4.45972 9.50661,-4.688286 9,-2 0.64478,1.89916 -1.17885,6.719011 3,8 2.45105,4.072306 10.79997,8.797491 9,7 -1.12983,0.25684 -0.5792,3.45403 2,7 5.64214,0.37773 9.2186,4.61314 9,11 5.46931,2.24762 5.85237,9.98514 12,10 1.97711,-1.15846 5.46786,10.10617 10,7 4.97006,-3.46263 6.46844,6.81406 13,5 1.46486,1.21134 7.23471,7.82636 14,4 4.40671,4.58077 12.86174,1.51426 12,6 -7.83401,4.57221 4.71849,9.11915 1,15 -2.91171,6.84975 -6.30961,0.70168 -11,7 -10.26279,1.47803 -2.92328,6.13383 -12,7 -2.07312,7.73002 -5.12165,10.03009 -11.83398,10.66795 0.55708,9.04311 -10.3455,4.47907 -3.16602,13.33205 0.88229,5.20773 3.8817,12.02828 5,17 -1.19426,5.1599 -2.09562,10.80546 -5,13 -1.08976,6.61341 -5.898,11.28481 -11,15 -8.4681,1.77515 -7.36046,8.15901 -14,11 -3.71856,8.23269 -14.74223,-0.64128 -21,6 -5.68689,4.3418 -12.75402,15.16764 -19,13 -2.99795,-3.83693 -1.15889,-11.03951 -5,-15 -1.35335,-6.02873 -6.28006,-8.89925 -13,-3 -2.70549,-1.45053 -8.6277,-1.62496 -16.70086,0.46261 C 112.40673,261.92642 104.74591,258.2085 108,251 c -2.24457,-8.53016 -4.50043,-15.94785 -7,-24 -2.189561,-4.42514 -4.67733,-10.06762 -8,-14 -2.403605,-8.32758 -8.897028,-15.42238 -12,-23 -1.6005,0.12127 -7.81517,-10.14499 -10,-14 -4.093703,-3.76671 -3.443821,-10.58056 -6,-15 -2.012796,-7.08646 -7.303941,-13.83871 -14,-18 -1.649735,-3.49127 -7.976321,-8.2712 -13,-5 -1.854401,4.91626 -4.96512,8.92229 -5,2 2.056189,-0.0715 -2.017176,-12.48153 -1,-11 0.921797,-3.06872 5.734433,3.83299 5,-2 -0.665858,-1.92942 -6.322493,-6.29335 -6,-7 -2.02503,-0.20568 -3.215711,-6.34386 -6,-9 -1.060909,-4.35551 -1.576698,-5.52867 -2,-5 -4.408779,-3.81488 3.157705,-2.94878 1,-8 5.786898,-3.29563 -10.104884,-0.628249 -3,-6 0.840662,-0.348421 5.346876,-6.732917 0,-9 1.914567,-4.527146 0.598324,-4.420982 4,-5 2.074958,-3.260536 2.884219,-1.940507 5,-6 -1.866619,-1.818037 0.912659,-11.180121 3,-6 3.664359,1.619899 -0.606348,-2.913638 5,-6 5.813459,0.364908 0.111437,-5.101235 4,-6 -5.226423,-4.71754 4.44761,-3.27371 6,-3 1.442363,4.047005 2.892505,-5.213058 7,-2 2.243876,-0.666426 6.617885,9.916048 5,6 2.384708,-4.879594 7.227515,-1.43332 5,-1 -0.299439,5.475669 8.955156,4.201016 7,4 3.086129,-2.416748 3.315958,5.661683 8,3 4.904357,2.649207 7.147272,1.58253 11,1 4.455307,2.186781 5.158381,-3.485253 8,-3 2.82543,-1.128362 5.82313,-1.976303 0,-5 6.81681,-4.69027 2.18166,-2.753254 0,-5 -0.543054,-8.313839 2.67764,-7.64872 6,-7 2.9768,-1.954836 -1.1139,-6.69432 4,-4 z"
           id="path27"
           inkscape:connector-curvature="0"
           style="fill:#cccccc;fill-opacity:1;stroke-width:1.4;stroke-miterlimit:4;stroke-dasharray:none;stroke:#6e6e6e;stroke-opacity:1"
           inkscape:label="path_st_ouen" />
      </g>
      <g
         id="parishesjsy_7">
        <path
           d="m 481,152 c -4.66704,-8.82045 4.47941,-9.08241 0,0 z"
           id="path30"
           inkscape:connector-curvature="0" />
      </g>
      <g
         id="parishesjsy_8">
        <path
           d="m 228,331 c -3.09727,8.68995 1.22619,0.56856 4,-2 11.59047,-3.10318 -3.9032,9.55905 4.66795,8.83398 7.90502,0.46392 11.42481,3.71567 19.33205,3.16602 5.56385,-3.77719 6.55013,5.37404 13,4 5.38191,2.06779 13.60028,3.42513 21,3 3.08996,3.11133 12.94763,1.0528 16,6 0.17887,1.87078 9.3556,5.5154 14,6 0.87938,-5.22415 8.24319,3.50811 4,4 -3.95854,2.37479 -8.21641,4.45026 -12,7 -3.32436,2.77884 -8.6603,5.35113 -9,9 -5.10416,2.73675 -4.61824,9.57193 -8,15 -1.6859,6.98946 6.7254,12.35901 7,10 -3.63347,-6.59325 -14.52295,-2.42645 -8,3 2.74983,8.63676 11.08073,-5.7518 8,-1 -3.08459,4.18233 -4.34415,9.18324 -8,12 -1.66442,4.18372 -1.67199,9.60388 4,11 1.43005,-2.38399 -1.13578,5.92536 -2,10 -2.70664,2.6464 -2.4192,5.72376 -2,9 3.15882,6.36305 5.88063,0.41237 5,9 6.43143,-0.0981 8.34727,4.3194 13,6 -4.44106,-0.0728 -1.18385,12.32993 -1,10 4.47675,5.1647 0.0892,5.81811 2,9 -3.50509,4.37735 -3.1714,6.47103 -6,11 -2.88184,6.37335 -0.11509,7.1466 -4,7 -0.35549,4.12755 -0.91523,8.91972 -4,9 -0.88194,-2.83928 -3.44449,-2.91729 -5,-2 0.25899,1.75611 -7.03566,-5.09287 -6,-3 -3.04352,-5.42136 4.51007,-5.57004 1,-10 -3.03063,-4.39582 -4.62389,-0.30456 -8,-2 0.53229,-1.00658 -5.32849,-1.21441 -3,-6 -1.44285,-5.07746 -2.63237,-6.28562 -10,-8 -3.99562,-0.6659 -9.41844,-2.01704 -13,2 2.18292,2.80914 -0.78763,9.1753 -4,12 -7.18089,1.18348 -5.51617,-5.9014 -11,0 -6.37677,1.82426 -8.16401,-0.0493 -8,-1 -6.37758,0.34524 2.45321,-4.4948 6,-6 4.84562,-5.23428 -0.68424,-9.08437 -2,-12 -1.15155,0.97445 0.90416,-10.11687 -3,-12 -2.92563,-5.01004 7.51648,-4.17996 11,-6 2.60689,-5.1262 -1.2372,-12.93498 -4,-17 -3.2555,-4.41069 -4.55727,-10.25792 -9,-8 -3.2455,3.25701 -1.23517,-8.23862 -6,-9 -4.78467,-3.75915 -8.81423,-6.21669 -15,-7 -3.95776,-3.23818 -12.92717,-2.10119 -12,-3 -4.16537,2.27362 -11.9723,2.95539 -11,9 4.16597,6.07069 1.32394,7.53894 3,6 -0.19333,3.92308 -1.36928,-0.73064 -2,3 -0.91836,-3.26181 -2.85389,1.04266 -6,1 -1.58742,1.94914 -2.64923,4.10273 -1,10 1.00889,1.71355 0.42603,11.71954 -2,3 -2.33052,4.97774 -0.0105,-0.95963 -3,0 -0.0931,-1.53619 -1.71081,-2.55742 -7,-2 -5.30036,3.68161 0.33781,8.62471 -2,11 -1.11403,-4.37381 -4.47806,2.85478 -4,-1 -3.21383,-0.13766 -7.2201,-1.84616 -8,-3 -1.92049,-4.45972 -9.30463,7.27475 -8,2 -6.93148,1.22247 -2.59062,3.6434 -8,5 0.33807,3.52599 -3.71652,2.87641 -7,6 -2.63009,2.36865 -5.94142,-5.6142 -8,1 -4.14047,-0.38255 -4.85646,6.00686 -10,3 -0.87477,0.19988 -1.93279,-5.30823 -3,-2 -2.98191,3.93947 -5.39716,-4.27434 -8,-3 -5.22048,0.70254 -7.258035,-3.13133 -10,-1 6.110644,-4.32691 -4.830104,-2.75167 -3,-8 -2.507329,2.26572 -1.31434,-5.22796 -7,-2 1.773244,-7.74083 -0.148628,0.82524 -3,-6 0.968926,-3.14666 -6.25299,-2.77864 -5,-4 -1.771378,6.81797 -2.074825,4.21775 -5,3 -2.683962,7.8867 -7.048296,0.23568 -5,-2 -3.901009,-0.89113 -0.240825,-3.96481 -5,-5 0.747315,-4.40704 -3.768592,-0.46427 -5,-4 -4.560163,2.43452 -5.854816,-1.95263 -4,-5 3.199765,0.2113 4.65019,0.0413 9,1 1.29074,-5.37258 1.749142,-1.37996 4,-5 0.491999,-2.72351 4.096092,-3.62947 10,-5 3.435186,1.26973 15.525442,-1.17611 9,-6 -3.251361,-4.27175 -3.157439,-8.7874 -4,-7 -0.490941,-5.82094 6.972709,-5.86845 7,-4 1.998775,-1.3993 4.960095,1.55706 9,-2 -1.567348,-0.4791 5.79172,-4.23146 5,-10 1.94874,-4.3846 3.69276,-8.9739 5,-14 -0.66718,-6.22554 4.4766,-3.73703 5,-11 0.0986,-6.34021 2.60116,-18.62894 2,-16 4.14524,-1.86235 4.92765,-8.81319 6,-15 12.54571,-3.39295 24.28495,-9.81507 36,-13 5.90232,-5.18988 10.4627,-1.91286 15,4 5.4826,0.3223 8.36163,3.14371 15,0 6.27844,-2.30668 11.27199,2.63918 19,1 5.9247,-1.43932 4.24977,4.96112 12,6 3.74821,-1.78434 9.03106,6.64126 13,0 z"
           id="path33"
           inkscape:connector-curvature="0"
           style="fill:#cccccc;fill-opacity:1;stroke-width:1.4;stroke-miterlimit:4;stroke-dasharray:none;stroke:#6e6e6e;stroke-opacity:1"
           inkscape:label="path_st_brelade" />
      </g>
      <g
         id="parishesjsy_9">
        <path
           d="m 469,249 c 5.61075,0.034 3.92289,9.95663 6,14 4.53425,4.37296 -0.44417,14.25418 2,19 3.42034,3.69244 14.2343,-2.35728 15,2 2.60558,3.43449 -5.11753,12.56486 6,12 4.05771,0.60434 12.43537,3.49102 11,6 6.15248,-4.0101 -1.01597,-11.26298 7,-10 4.76416,-2.13812 15.01735,5.03141 13,-6 -1.59411,-12.01875 2.24562,-4.60678 10,-2 -8.51467,8.08494 -4.45074,8.33795 5.86483,8 4.87202,-0.4964 13.38485,-5.44779 12.13517,3 1.29878,5.24091 6.66247,6.15697 6,9 11.31305,-1.032 1.85365,12.63561 -4.31863,16.31863 C 553.54781,324.65044 545.6425,321.54121 548,331 c -2.12626,3.89361 -8.30259,5.52915 -11,9 -5.61267,2.18562 -5.11945,5.51795 -6,11 -0.77936,5.59144 -5.01832,12.99966 -9,17 -0.34725,7.68059 -0.0607,14.72739 2,20 0.846,6.78355 1.5592,6.44126 9.86483,5 4.64745,-6.36935 9.18773,1.72569 12.13517,4 3.56515,6.9394 -12.51071,5.75299 -6,13 11.06943,4.91037 -1.70884,7.87081 1,17 2.04305,7.83034 -13.30609,1.51681 -7,8 -0.002,8.44472 -9.85857,-9.26607 -10,1.86483 -0.80987,5.94303 4.94667,10.94715 4,15.13517 -0.66897,4.24104 -7.35344,-0.69255 -14,1 0.59507,6.00437 -1.71324,2.09846 -10,3 -7.84933,0.53487 -6.40119,10.67946 -7,10 6.10416,4.09111 -3.27573,9.10134 0,13 -2.88535,-1.39613 2.37246,8.64628 -2,11 -1.48463,5.35025 -6.1881,6.0103 -11,9 -6.41262,-0.54216 -10.02398,-5.28916 -13,-9 -4.2604,-4.68846 -5.78533,-12.47332 -8,-17 6.15175,-1.14391 7.45396,5.32512 10,0 3.80627,-6.47998 -10.93227,-2.63459 -6,-10 5.22305,-7.52581 -4.20309,6.52489 4,5 6.07965,1.27714 4.15422,-0.77014 8,-2 2.60215,-5.43672 -12.44042,-6.7637 -5,-7 5.88796,4.55206 14.67666,-2.00908 8,-6 -5.49939,-8.58366 -0.16752,0.46002 5,-2 -4.29401,-7.98274 4.28379,-6.20101 3,-5 -4.66733,-4.85852 2.40906,-9.76267 1,-14 -5.06215,-1.00321 -4.4506,7.26032 -8,11 -7.72461,6.09251 3.09731,-10.3995 2,-9 2.73736,-4.94755 5.1503,-7.81672 -1,-10 -1.82812,0.9034 -3.76365,7.48396 -6,11 -2.23165,5.71001 -6.08778,12.01162 -3,18 -6.57474,8.06963 3.36554,-13.22166 -6,-10 -3.3529,0.79053 -11.65217,-1.15325 -6.33205,7.33591 C 467.01643,463.40921 458.45829,439.93052 459,442 c -3.05789,-4.02404 1.0714,-4.67025 5,-6 8.17676,1.11666 5.67622,-6.5037 3,-10 3.59804,-5.94667 -6.64151,-8.53715 -7,-1 0.0165,5.38003 -4.74887,16.90275 -2,7 1.62423,-5.90048 2.19583,-13.7205 7,-16 3.40349,-4.07894 -2.77515,-12.68484 -1,-12 -1.43523,-5.23143 -6.73976,-6.59357 -9,-11 -4.29062,-3.21519 -7.43375,-6.09216 -12,-10 -6.1863,-4.41391 -11.1922,-9.43111 -17,-12 -0.36855,0.45612 -6.77818,-4.04003 -11,-5 -4.17291,-1.99534 -10.6469,-3.33323 -14,-6 -4.34418,2.34129 6.7376,-12.13095 4,-11 -0.98429,-6.73084 -1.10355,-10.62235 -1,-17 -1.33118,-0.62295 1.83232,-11.82085 7,-8 2.77845,-4.28192 -2.27384,-11.02441 -1,-14 -5.34163,-5.53074 1.25702,-7.60621 8,-6 8.45436,3.89457 8.45521,-1.22922 10,-7 -3.02884,-6.63795 5.21189,-17.21842 5,-6 0.9776,8.11283 4.75997,3.15966 10,7 3.7506,-6.25709 -0.6039,-5.30459 -2,-13 1.71757,-2.11924 2.60555,-12.5162 2,-12 0.54369,-7.84728 2.68056,-10.95269 6,-17 -0.65328,-4.43423 6.54176,-13.26593 9,-8 3.73289,-0.3885 7.28624,1.21078 11,1 z"
           id="path36"
           inkscape:connector-curvature="0"
           style="fill:#cccccc;fill-opacity:1;stroke-width:1.4;stroke-miterlimit:4;stroke-dasharray:none;stroke:#6e6e6e;stroke-opacity:1"
           inkscape:label="path_st_helier" />
      </g>
      <g
         id="parishesjsy_10">
        <path
           d="m 254,168 c 3.27492,0.36455 13.37081,7.84827 12,15 -1.27279,7.42224 8.55112,5.23241 9,12 -2.37831,5.29422 -1.13452,9.40732 1,15 2.8e-4,8.47241 3.24048,6.67917 10,4 6.59119,-2.57098 4.20801,9.04229 7,13 3.67486,2.30574 12.28036,-9.3347 13,-2 7.26872,-0.43813 0.63065,-10.53526 10.66795,-9.83398 C 323.6296,211.06678 329.71351,210.17242 333,215 c -0.26041,7.82838 6.52792,6.52233 10,11 -9.0711,2.41129 -5.22843,-3.28554 -11,2 -5.73199,2.82345 -11.37698,5.41223 -10,15 1.37702,6.8544 8.37813,12.1199 3,18 -0.0851,8.72569 4.60515,22.04182 -5,25 -3.34241,6.02854 -2.95519,9.11015 3.76913,11.58971 C 333.12046,297.0096 327.38382,307.81458 334,310 c 4.40511,3.41974 6.37363,8.97088 4,15 0.69037,4.18659 0.45963,12.13042 2,18 -1.50997,5.86725 3.24006,14.97691 -2,16 -6.03455,2.69688 -3.18916,2.32464 -11,4 -2.84454,-0.30965 -4.12553,-7.43376 -8,-3 -4.38601,-1.60286 -13.84094,-3.4874 -13,-7 -5.29986,-3.33191 -12.89526,-2.58164 -17,-5 -9.20531,0.33998 -18.43601,-1.99763 -25,-4 -2.64083,-4.99857 -7.49872,-3.43488 -14,-3 -3.69379,-2.65617 -12.72914,-1.74631 -17,-5 7.92416,-4.00054 0.0274,-11.69826 -3.83398,-4.33205 -3.67592,3.61086 -10.9723,-1.39606 -16.03085,-0.66795 -6.18091,-3.33912 -4.3711,-6.91157 -11.13517,-6 -7.87973,1.38195 -12.19915,-3.38289 -19,-1 -6.2604,3.17536 -9.43226,0.71824 -15,-1 -4.23433,-6.43025 -8.85675,-6.8056 -15,-3 -11.1162,3.82041 -22.88743,9.58315 -35,13 1.5595,-4.82966 2.28423,-19.0523 2,-17 -2.07147,-4.61157 -0.33532,-13.2658 -2,-19 -1.57334,-5.42666 -1.90835,-12.09165 -4,-17 0.5553,-4.67112 -3.90414,-15.3913 -4,-13 -4.62426,-9.32164 6.64649,-7.83647 14,-9 9.03027,-3.92794 8.8721,2.16984 15,-1 7.27712,-6.52833 9.7754,0.91617 12,6 3.48637,3.51363 0.13168,13.86832 7,14 9.84924,-6.62526 18.15166,-21.0283 32,-16 6.85868,-2.5939 9.15119,-8.49359 13,-12 6.61466,-2.70603 12.15403,-6.51375 15,-13 4.4349,-5.97477 2.21892,-7.84195 7,-13 -1.26012,-5.71762 -0.25104,-10.52476 -4,-17 0.68793,-4.27281 -8.58643,-14.17041 1,-12 -2.052,-12.38639 10.41426,-2.82557 10,-12 3.14792,-5.48865 9.86602,-6.36634 9,-10 6.62551,1.48079 9.25243,-9.45558 13,-4 z"
           id="path41"
           inkscape:connector-curvature="0"
           style="fill:#cccccc;fill-opacity:1;stroke-width:1.4;stroke-miterlimit:4;stroke-dasharray:none;stroke:#6e6e6e;stroke-opacity:1"
           inkscape:label="path_st_peter" />
      </g>
      <g
         id="parishesjsy_11">
        <path
           d="m 366,162 c 5.98851,0.9539 12.52536,4.72253 18,8 4.92285,-5.67459 4.17002,-7.15632 13,-4 7.4785,2.34049 14.10238,3.53241 21,5 4.08474,-4.21888 12.84144,-0.23782 16,2 4.56302,2.60046 12.27792,2.27301 16,4 5.37903,4.53503 0.24825,11.55345 2,17 -0.85283,5.48181 -1.17916,10.35481 0,14 1.04019,4.71948 6.71352,10.42688 2,16 -0.73719,6.84508 -1.13179,9.81967 -4,14 0.98663,5.53749 0.56208,12.09359 -1,17 -2.36584,6.78118 -5.42502,9.22154 -6,17 -0.10727,2.33255 -1.23129,8.51802 -1,13 -1.45865,5.64643 4.61195,7.15448 2,12 -4.38521,-1.65411 -10.99952,2.40602 -10,-6 -1.01985,-8.85961 -8.46443,-3.38369 -6,5 -1.51141,5.39459 -0.794,12.53712 -9,8 -5.99643,-0.97256 -15.16156,-0.34353 -9,5 -1.27381,3.50969 3.41101,9.93629 1,14 -2.19634,-1.3365 -10.65739,5.84562 -6,9 -3.61448,4.67644 1.37484,9.35489 -1,16 -1.24474,1.37424 -3.27697,13.43095 -7,11 -5.29737,-1.70263 -12.11522,-1.88478 -18,-3 -7.99018,0.39162 -10.53902,0.0792 -19,0 -7.34213,-0.34213 -13.19551,0.80449 -19,2 -1.88177,-9.63476 -0.96596,-20.42832 -3,-30 -1.39269,-3.00198 4.34826,-12.81282 -2,-15 -4.87252,-2.51763 -5.35627,-10.54337 -8,-14 -6.24065,-0.76402 -13.05961,-5.87941 -9,-9 1.96359,-6.37389 9.19776,-7.85881 7,-17 -1.49664,-6.59807 -0.82679,-12.83541 1,-18 -2.3296,-5.70717 -7.60739,-13.6916 -4,-21 2.32122,-3.69865 9.29556,-4.53619 12,-8 -4.01359,-1.14212 15.68422,2.70528 4.13517,-3 -4.46203,2.3431 -9.31936,-10.69344 -2.13517,-9 6.60447,-1.9726 3.31175,-6.60514 9,-5 6.0049,-7.1289 -10.91262,-5.86 -7,-10 -1.33046,-7.45436 4.09729,-11.67824 2,-17 2.55623,-3.88438 1.54668,-13.68608 5,-15 1.4725,-3.1356 6.03588,-4.48233 11,-6 3.22163,-3.26136 5.31485,1.71289 9,1 z"
           id="path44"
           inkscape:connector-curvature="0"
           style="fill:#cccccc;fill-opacity:1;stroke-width:1.4;stroke-miterlimit:4;stroke-dasharray:none;stroke:#6e6e6e;stroke-opacity:1"
           inkscape:label="path_st_lawrence" />
      </g>
      <g
         id="parishesjsy_12">
        <path
           d="m 293,75 c 1.68671,0.07228 9.26408,-1.604717 13,1 7.87278,-0.271828 6.76657,7.334851 10,12 5.19078,-1.99804 13.84775,3.957209 12,4 2.51832,-2.070897 8.3392,-3.896102 9,2 5.80423,-4.022331 6.43064,2.431845 7.83398,9.66795 C 345.55389,110.59197 337.283,108.36339 339,115 c -0.0202,2.93121 -5.46664,13.72705 -6,7 -1.34363,4.27917 -9.48293,7.97885 -9,14 1.36478,4.11736 -7.71792,17.10328 0,10 7.13253,-2.58807 8.17268,-9.56499 15,-11 3.56773,-2.16911 8.5753,-7.039 11,-2 2.17255,5.03978 5.59306,10.32709 12,12 1.67814,2.01842 -1.32925,10.19036 -5,13 -6.96265,3.97216 -3.94393,4.60872 -10,7 -3.41308,1.40218 -2.99613,8.08457 -5,14 -1.26249,5.36259 -0.63523,9.39531 -3,16 -5.06813,9.40989 6.33425,4.19306 7,11 0.7837,6.29367 -5.53176,0.65379 -6,7 -7.16318,3.14339 -8.80624,-0.52418 -13.76913,-1.41029 -5.157,2.00438 -16.55565,4.15023 -16.23087,8.41029 -0.0216,10.5329 -5.92257,-0.91105 -9,4 -7.43702,7.14682 -10.45091,0.45579 -10,-6 2.28545,-13.098 -22.11825,7.09027 -13,-1 -2.7559,-3.71671 -1.71001,-11.02307 -5,-15 2.49477,-3.97506 3.30849,-12.39928 -4,-13 -3.99046,-3.31823 -2.28537,-11.54287 -7,-17 -11.21393,-3.47031 -6.08984,-5.88195 -2,-12 -8.86776,-6.05757 -3.74555,-7.93882 -3,-15 -2.82754,3.16561 -8.97994,-3.23813 -15,-3 -7.48008,4.47436 -8.44815,-6.44894 -14,-4 -3.72579,-1.21404 -7.79996,-9.65864 -12,-4 -4.0438,-3.78771 -6.7682,-8.1224 -10,-9 -4.08294,-1.76708 -8.62304,-7.11814 -10,-12 -3.40203,-6.94304 2.75258,-4.98322 3,-11 2.31617,-3.475151 8.07707,-1.69891 6,-3 -0.85619,4.48245 3.5718,10.28016 5,5 7.3828,1.18195 0.28998,-5.362212 4,-9 2.21108,-8.016464 1.02188,2.575396 5,0 1.17737,4.726474 8.06204,5.98623 7,2 3.0334,2.134518 6.09521,5.77309 7,2 3.83883,-2.258025 1.58495,-2.283993 5,-7 1.79376,1.27069 2.42801,2.53089 4,6 2.53077,1.844803 7.93915,3.03518 7,8 4.60099,-1.52013 2.79557,-6.555379 7,-10 0.87679,-4.634212 5.95072,-9.253449 10,-5 3.61664,4.722728 6.87906,-0.218431 10,5 7.35285,0.70279 -0.47311,-3.036522 4,-8 -0.0928,-1.084638 -2.3188,-8.093692 1,-6 2.84989,-4.852908 8.67776,-5.543695 7,-5 4.82526,-0.889494 1.88451,-4.513763 5,-2 z"
           id="path47"
           inkscape:connector-curvature="0"
           style="fill:#cccccc;fill-opacity:1;stroke-width:1.4;stroke-miterlimit:4;stroke-dasharray:none;stroke:#6e6e6e;stroke-opacity:1"
           inkscape:label="path_st_mary" />
      </g>
      <g
         id="parishesjsy_13" />
      <g
         id="parishesjsy_14" />
      <g
         id="parishesjsy_15" />
      <g
         id="parishesjsy_16" />
      <g
         id="parishesjsy_17">
        <path
           d="m 350,33 c 3.39875,0.785069 0.92383,7.727441 7,9 7.14886,1.68686 5.6647,-1.116419 10,4 1.86004,7.328258 2.80202,4.788685 3,10 3.55847,3.3359 3.92557,7.895223 7,6 4.56214,3.089069 7.1675,-2.367292 10,4 2.26887,4.431189 3.67312,3.496067 4,7 4.11624,5.040963 4.25392,0.533623 9,4 3.83369,1.683025 5.74392,-0.817653 8,-2 4.90107,1.58301 5.443,-0.536048 10,-1 -0.41707,-0.519699 7.32973,1.452038 5,-3 4.46731,2.593057 5.20642,3.544144 8,5 1.12387,-2.342903 4.86447,2.042718 6,-1 3.42098,-1.647134 2.90867,-4.866678 5,-2 1.46519,-3.967114 10.27581,-1.135622 8,-1 3.7658,2.310907 4.50338,5.57522 2,9 8.92458,4.712098 -5.37237,-0.902208 1,7 5.2826,2.698305 10.53789,5.573399 15,4 8.73242,-0.236788 8.19042,-3.972587 12,-5 -1.24206,-5.650884 2.25925,-3.330086 3,0 3.3014,-0.978013 1.53099,2.841508 3,2 -0.95166,4.8641 13.4368,5.931274 3,9 -6.186,2.2634 -8.76502,8.44666 -7,14 -1.41286,7.12168 2.54692,15.78238 0,21 -6.087,-4.72104 -6.34872,7.14824 -7,12 10.23763,-5.22295 5.59538,4.19677 11,4 4.31152,-0.31402 5.22316,12.32261 2,13 -5.35382,3.62605 3.04488,13.45862 -1,20 4.28308,6.35249 -6.9246,4.92148 0,12 3.7281,5.35955 -3.87902,15.17299 4,17 3.0089,10.11965 -0.61886,17.88632 0,29 0.56972,7.7031 -9.49427,4.95378 -15,6 -4.11067,3.27576 -13.69352,4.8836 -18,0.13517 -5.2071,1.62662 -10.49155,5.61233 -7,-3.13517 -3.27857,-7.75582 3.71317,-7.83633 2,-15 1.84304,-4.28483 5.1038,-12.26796 0,-16 -3.54771,-6.13458 -0.095,-7.60355 -2,-14 0.61955,-6.50103 1.50659,-10.68243 1.16602,-17.66795 C 450.79027,172.97912 442.98233,177.88631 438,174 c -5.5168,0.0312 -10.58768,-7.51958 -18,-4 -5.04636,2.85928 -11.54992,-2.95445 -18,-2 -5.09901,-0.30158 -15.14487,-8.19007 -14,-1 -5.41748,6.32667 -10.52561,-2.96723 -18,-4 -5.53213,0.11908 -10.73451,-5.36099 -15,-1 -9.9795,0.62652 5.753,-2.72437 5,-8 2.019,-4.44312 6.41701,-11.31568 -4,-11 -2.41595,-5.11315 -6.55032,-9.53884 -9,-13 -3.72919,2.58909 -8.08121,4.90956 -13,7 -2.5548,4.19108 -8.06489,8.8185 -14,12 3.55885,-7.07308 4.16303,-12.05466 6,-20 5.63604,-5.86127 5.71463,-6.49094 8,-6 7.77086,-3.85469 3.79328,-10.69696 7,-13 5.71964,-1.36004 3.16682,-9.2326 2,-15 -2.85562,-4.220571 -7.72282,1.720433 -9,-6 -5.38916,2.203914 -5.23485,5.135251 -10,1 -3.42434,-3.691737 -10.76784,0.337636 -11,-9 1.14118,-4.263653 -11.57838,-6.522705 -12,-6 -8.42126,1.80198 -8.48695,-8.385251 -9,-6 0.66488,-3.698662 5.95912,0.284605 6,-3 3.35419,-0.957679 0.83242,-6.823782 4,-7 1.20756,-1.503607 -0.13124,-0.478625 4,-2 2.4015,-3.443846 1.05356,-6.831157 2,-7 4.34408,5.229646 2.66759,5.815167 7,4 5.82782,2.84917 4.68262,0.45746 9,0 3.57738,-0.906769 2.02981,-4.690697 2,-8 -2.01224,-3.104054 -0.75279,-7.104882 -2,-7 -0.40576,-6.996854 1.18354,-0.636663 5,-2 2.55891,5.296474 5.88124,4.301439 9,8 -1.50627,-1.900342 9.77227,-0.06303 11,-5 1.79411,-2.675352 -1.28837,-6.514548 1,-7 z"
           id="path62"
           inkscape:connector-curvature="0"
           style="fill:#cccccc;fill-opacity:1;stroke-width:1.4;stroke-miterlimit:4;stroke-dasharray:none;stroke:#6e6e6e;stroke-opacity:1"
           inkscape:label="path_st_john" />
      </g>
    </g>
  </g>
  <!-- QGIS extent for clipping, eg in Inkscape -->
  <g
     id="qgisviewbox"
     inkscape:groupmode="layer"
     inkscape:label="qgisviewbox"
     stroke="rgb(255,0,0)"
     stroke-width="1"
     fill="none" />
</svg>
