<?xml version="1.0" encoding="UTF-8" standalone="no"?>
<svg
   xmlns:dc="http://purl.org/dc/elements/1.1/"
   xmlns:cc="http://creativecommons.org/ns#"
   xmlns:rdf="http://www.w3.org/1999/02/22-rdf-syntax-ns#"
   xmlns:svg="http://www.w3.org/2000/svg"
   xmlns="http://www.w3.org/2000/svg"
   xmlns:sodipodi="http://sodipodi.sourceforge.net/DTD/sodipodi-0.dtd"
   xmlns:inkscape="http://www.inkscape.org/namespaces/inkscape"
   version="1.1"
   viewBox="0 0 109.34495 71.723289"
   xml:space="preserve"
   enable-background="new 0 0 300 300"
   id="svg2"
   inkscape:version="0.91 r"
   sodipodi:docname="gsy_new.svg"><metadata
     id="metadata87"><rdf:RDF><cc:Work
         rdf:about=""><dc:format>image/svg+xml</dc:format><dc:type
           rdf:resource="http://purl.org/dc/dcmitype/StillImage" /><dc:title></dc:title></cc:Work></rdf:RDF></metadata><defs
     id="defs85" /><sodipodi:namedview
     pagecolor="#ffffff"
     bordercolor="#666666"
     borderopacity="1"
     objecttolerance="10"
     gridtolerance="10"
     guidetolerance="10"
     inkscape:pageopacity="0"
     inkscape:pageshadow="2"
     inkscape:window-width="1920"
     inkscape:window-height="1143"
     id="namedview83"
     showgrid="false"
     inkscape:zoom="5.0346666"
     inkscape:cx="61.328177"
     inkscape:cy="61.758485"
     inkscape:window-x="0"
     inkscape:window-y="0"
     inkscape:window-maximized="1"
     inkscape:current-layer="svg2"
     fit-margin-top="0"
     fit-margin-left="0"
     fit-margin-right="0"
     fit-margin-bottom="0" /><g
     transform="matrix(0.75,0,0,0.75,-44.7049,-203.80372)"
     id="g4"
     style="color-interpolation:linearRGB"><g
       id=""><g
         id="Alderney"><g
           transform="matrix(1.3333333,0,0,-1.3333333,200,200)"
           id="g8"><path
             style="fill:#cccccc;fill-opacity:1;stroke:#6e6e6e;stroke-width:0.2;stroke-opacity:1"
             d="m -24.382102,-66.595692 c -0.07327,0.527026 -0.107519,0.235316 0.02972,0.769777 -0.425149,0.372753 -1.426767,-0.117508 -1.524561,-0.420592 -0.314556,-0.342243 -0.06341,0.419163 -0.315267,0.252762 -0.301156,-0.116399 -0.0187,0.477532 0.407724,0.306699 0.525967,0.08585 1.448296,-0.150945 2.067229,0.179801 0.230668,0.163342 1.033808,0.01341 1.259692,0.696093 0.352959,0.379832 0.626565,0.288717 0.775182,0.859313 0.593761,0.827504 -0.222052,2.188511 0.812443,2.589996 0.892533,0.0093 2.11691,0.245158 3.156903,0.05758 0.768451,-0.08786 1.705367,0.510636 1.71122,0.808775 0.163897,0.316393 -0.149566,-0.295195 0.222388,-0.04218 0.07366,-0.182056 0.531485,-0.226567 0.533775,-0.562035 0.967112,0.02522 0.963631,1.335978 0.53623,1.481722 -0.111509,0.311743 0.111872,0.349445 0.103381,0.362844 -0.504817,0.395932 0.189815,0.35432 0.02206,0.460247 -0.4953,0.04982 -0.158948,0.317943 0.06464,0.291211 1.305002,0.932507 2.704918,2.29946 3.959057,3.045622 -0.872614,-1.250999 -4.067218,-2.019761 -3.362038,-3.760774 0.825964,0.02517 -0.763507,-0.574623 0.452582,-0.520614 -0.279696,0.743901 0.982713,0.174475 0.722889,1.287941 -0.158656,-0.518855 -0.157101,-1.554305 0.63203,-1.389062 0.411848,-0.32005 -0.702644,0.257641 -0.360169,-0.481313 0.480128,-1.067741 1.980146,-0.844319 2.9478553,-0.90259 0.872043,0.06619 1.611309,0.484601 2.14246,1.089372 0.38142,0.417585 0.682792,1.026846 0.22425,1.448437 -0.138836,0.362097 -0.328927,0.366517 -0.525369,0.591423 -0.501265,0.03647 0.03185,0.513681 -0.421939,0.770388 0.02205,0.520302 0.494528,-0.56618 0.36775,0.100538 0.317891,-0.368123 0.268067,-0.05349 0.404332,-0.09216 0.186053,-0.03386 0.176983,-0.0073 0.167623,0.324659 0.198233,-0.06118 0.05024,0.01729 0.2225,0.174469 0.725382,-0.02967 0.679505,0.578833 0.310629,0.853796 -0.243758,-0.25089 -0.211755,0.84281 0.07286,0.291884 0.538745,0.210117 1.273554,-1.498584 2.190828,-0.608839 0.43803,0.433462 0.139427,0.921632 0.689112,1.176105 -0.288659,0.339328 -0.657633,0.856261 0.0047,0.848677 0.09151,0.47447 0.304633,0.184839 0.27333,-0.101384 -0.03501,-0.234173 0.132915,-0.46248 0.425432,-0.682535 -0.166047,-0.713878 0.606045,-0.544247 0.613857,-1.230097 0.768013,-0.498304 1.302046,-0.106854 1.36676199,0.398719 0.245541,-0.128979 0.502097,0.828968 0.503467,0.104592 -0.05514,-0.09261 0.112532,-0.114721 0.162077,-0.367038 0.74333198,-0.195516 0.452052,0.94426 0.99938198,0.585109 0.23867,-0.366945 0.36992003,-0.224696 0.64768003,-0.126556 0.17534,-0.224952 0.2137,-0.08432 0.47184,-0.02935 0.20716,0.147091 0.52254,-0.203703 0.80983,-0.03975 0.43438,0.04519 -0.4815,-0.712153 0.25664,-0.404713 0.24235,-0.309786 0.20681,0.623348 0.45239,0.173538 0.10549,0.291376 0.29512,-0.03702 0.30009,-0.228388 -0.16097,-0.456371 0.26184,-0.621954 0.24389,-0.844051 -0.24068,-0.299227 -0.0119,-0.300832 -0.25001,-0.715157 -0.156,-0.238281 -0.43114,-0.441716 -0.39785,-0.754453 -0.3064,0.223332 -0.19693,-0.273702 -0.46075,-0.406664 -0.30079,0.264585 -0.55588,0.10493 -0.50738,-0.224272 -0.1204,-0.346767 -0.30078,-0.164042 -0.41875,-0.610527 -0.16219,0.0645 -0.28425,-0.100621 -0.22116,-0.33853 -0.43764,-0.01462 -0.2772,-0.91016 -0.75610003,-0.836717 -0.18223,0.49967 -0.95034998,-0.02631 -0.80460998,-0.115273 -0.470063,1.239042 -3.67484999,0.346411 -2.65529799,-1.085924 0.648985,-0.407988 1.113751,-1.111701 0.815011,-1.50549 0.123196,-0.401887 -0.159131,-0.388864 -0.297492,-0.304389 -0.474918,-0.16827 -0.613199,-0.333937 -0.541776,-0.805714 0.04837,-0.511155 -0.638341,-0.866869 -0.87803,-0.789419 -0.11803,0.01677 -0.320529,0.159588 -0.640856,0.189765 0.112582,0.726661 -0.403611,-0.337021 -0.677078,0.227284 -0.574868,0.414922 -0.313975,-0.695418 -0.340197,-1.190056 -0.27297,-0.49899 -0.551729,0.284391 -0.878849,-0.181506 -0.142374,0.08934 -0.264903,-0.56363 -0.284606,-0.552727 -0.06269,-0.217967 -0.596989,-0.398357 -0.848721,-0.488305 0.324655,-0.513711 -0.360385,0.07966 -0.757245,-0.11533 -0.449624,-0.356609 0.658732,-0.921961 0.188689,-1.121132 -0.505309,-0.340423 -1.010961,-0.05437 -1.277327,-0.738337 -0.02062,-0.437808 -0.419903,-0.349019 -0.428661,-0.534436 -0.383302,-0.418594 -0.9319623,0.375399 -1.1280233,-0.222389 -0.439734,-0.333383 -0.696145,-0.189727 -1.120684,-0.176487 0.05521,-0.351664 -0.323943,-0.182317 -0.381067,-0.388934 -0.340036,0.05529 -0.176058,0.577788 -0.692644,0.376906 -0.06637,-0.38856 -0.765658,0.414407 -0.796282,-0.399885 -0.134087,0.01631 -0.703951,0.234182 -0.819985,-0.169916 -0.08544,-0.09753 -0.650385,-0.232494 -0.560504,-0.484503 -0.0576,-0.118251 -0.350196,0.401769 -0.379234,-0.178636 -0.12491,-0.379938 -0.555841,-0.742442 -0.838376,-0.557319 -0.388084,0.266971 -1.082863,-0.509835 -1.042832,-0.697836 -0.220277,-0.217501 -0.486101,-0.220006 -0.754374,-0.394906 -0.244669,-0.135093 -0.513362,-0.103979 -0.548359,-0.09796 -0.04221,0.0043 -0.19323,-0.07746 -0.378623,-0.0226 0.123494,0.477816 -0.142505,-0.09584 -0.276369,0.168026 -0.297812,-0.2475 -0.267098,0.04372 -0.378824,0.291464 -0.04086,-0.267078 -0.278761,-0.68109 -0.660448,-0.24701 -0.249896,0.04801 -0.640747,-0.238831 -0.561261,-0.36743 -0.320473,-0.105151 -0.650841,0.140245 -0.930575,0.142446 0.129325,0.255681 -0.209793,0.844086 -0.7186,0.496884 -0.117651,-0.50578 -0.355377,0.53133 -0.742437,0.241565 -0.119164,0.458447 -0.561009,-0.166618 -0.478711,0.119917 -0.290446,-0.332322 -0.03535,-0.688007 -0.319203,-0.850443 -0.301987,-0.349117 -0.619121,0.163949 -0.641484,0.30828 -0.180741,-0.160433 -0.259512,0.106791 -0.386428,0.258526 -0.262949,0.03782 -0.56704,0.08344 -0.344502,0.319657 0.07045,0.456833 -0.804482,0.09358 -0.502548,0.473065 0.273893,0.138515 -0.134414,0.386286 -0.231993,0.04997 -0.253943,0.02293 -0.451862,0.03404 -0.294997,0.286423 0.07444,0.140663 0.289659,0.04752 0.263086,0.181618 0.252241,0.155654 0.575755,0.117425 0.506445,0.549127 -0.280287,0.334048 -0.859709,-0.06507 -0.662231,0.407965 -0.420427,-0.476486 -0.254982,0.165577 -0.193371,0.160703 -0.124431,0.124914 0.0843,0.497554 0.12895,0.431034 0.311661,-0.006 0.659433,0.577318 0.487201,0.994559 -0.274246,0.0455 -0.10889,0.554185 0.110075,0.679653 -0.222415,0.15256 -0.175296,0.250409 0.114724,0.174401 -0.09695,0.199891 0.07236,0.03965 -0.01287,0.235868 0.470967,-0.107112 0.326956,0.424192 0.408442,0.488805 0.08363,0.11065 0.307034,-0.06278 0.426649,0.226207 0.358958,0.159457 0.366464,0.283108 0.419936,0.64242 z"
             id="path10"
             inkscape:connector-curvature="0"
             inkscape:label="path_alderney" /></g></g><g
         id="Herm"><g
           transform="matrix(1.3333333,0,0,-1.3333333,200,200)"
           id="g13"><path
             style="fill:#cccccc;fill-opacity:1;stroke:#6e6e6e;stroke-width:0.2;stroke-opacity:1"
             d="m -14.736533,-90.142338 c 0.678541,0.830993 -0.165054,1.948465 -0.413074,2.552494 -0.172016,0.858688 -0.775649,2.127898 -1.366436,2.490877 -0.08784,0.316473 -0.217972,0.801291 -0.406895,1.122063 0.449969,0.525661 1.439154,0.718185 2.180797,0.914197 1.702786,1.875048 2.43774,0.763094 1.885493,-1.391317 -0.164959,-0.763452 0.08086,-1.362613 0.564911,-1.759396 0.14667,-0.654628 0.877993,-0.38949 1.054748,-1.049937 -0.819293,-0.392901 0.47421,-0.898388 0.25754,-1.530533 0.291582,-0.200787 0.440322,-0.874485 0.897022,-0.782556 0.2398776,-0.416644 -0.0875,-0.122977 -0.06575,-0.638433 -0.264739,0.122094 -0.671579,-0.606831 -0.834053,-0.799271 -0.497608,0.0133 0.07808,-0.616739 0.09276,-0.985583 -0.184085,-0.297879 -0.879756,0.283554 -0.621987,-0.49878 0.380699,-0.498092 -0.567777,-1.644845 -0.627483,-0.638259 -0.345272,-0.347121 -1.094922,-0.553452 -1.205117,-0.811406 -0.464089,-0.153395 -0.649789,-0.778148 -1.09383,-0.414806 0.05615,0.305068 0.127863,0.379931 -0.102657,0.684677 -0.244353,0.315001 -0.666196,1.109045 -0.284544,1.562179 -0.384756,0.645649 -0.453229,1.196171 -0.398764,1.906189 -0.400334,0.772638 0.197826,-0.345914 0.242288,0.131719 -0.09865,-0.234003 0.174247,-0.06244 0.245031,-0.06412 z"
             id="path15"
             inkscape:connector-curvature="0"
             inkscape:label="path_herm" /></g></g><g
         id="Sark"><g
           transform="matrix(1.3333333,0,0,-1.3333333,200,200)"
           id="g18"><path
             style="fill:#cccccc;fill-opacity:1;stroke:#6e6e6e;stroke-width:0.2;stroke-opacity:1"
             d="m -16.987732,-102.03527 c 0.141808,0.002 0.361333,0.23023 0.435108,-0.002 -0.07971,-0.0374 0.439207,-0.17173 0.568061,0.0371 0.454973,0.0269 0.26614,-0.73532 0.438896,-0.0674 0.434621,-0.30688 0.652899,-0.40352 1.357453,-0.40874 0.134743,-0.57493 0.09143,-0.45542 0.282553,-1.04439 -0.551199,-0.30342 0.02924,-0.7391 0.026,-1.27398 0.06127,-0.341 0.286623,-0.77762 0.100995,-0.86143 0.112732,-0.25307 0.155043,-0.64173 0.513566,-0.92907 0.372625,-0.17228 0.579371,-0.18327 0.678431,-0.051 0.197056,-0.11348 0.125662,0.007 0.277535,0.24286 0.309766,-0.16765 0.329677,-0.13552 0.619315,-0.12073 -0.29004,-0.42643 0.247469,-0.19836 0.454952,-0.39008 0.619289,0.0622 0.790729,-0.1183 0.869032,-0.82237 -0.171244,-0.16355 0.17549,-0.42762 -0.211804,-0.35994 0.04966,-0.2779 0.297903,-0.58884 0.256246,-0.65259 -0.205866,-0.1724 -0.451013,-0.53538 -0.235088,-0.58229 -0.180605,-0.47927 0.405301,-0.18669 0.437605,-0.39542 -0.45783,-0.4365 0.9114048,-0.22524 0.5693528,-4.8e-4 0.06145,-0.47943 -0.125155,-0.80843 0.164121,-1.31302 -0.520271,-0.28423 -0.282202,-0.40336 -0.266957,0.0589 -0.301682,0.23274 -0.6152558,-0.0151 -0.226304,-0.39559 -0.5128818,0.21318 -0.2551268,-0.0395 -0.1998448,-0.47692 -0.725202,-0.22938 0.2177988,-0.27315 -0.0725,-0.57739 -0.201498,0.39942 0.07284,-0.45124 -0.299746,-0.208 -0.03395,-0.23508 -0.09286,0.10349 -0.09066,-0.36874 -0.139871,-0.49953 -0.632554,-0.14994 -0.522239,-0.31063 0.124176,-0.36797 -0.561039,0.18576 -0.09131,-0.31098 0.04786,-0.3709 -0.84102,-0.21957 -0.477907,-0.83749 0.459805,-0.26688 0.352909,-0.7194 0.394214,-0.86157 -0.336173,0.0422 -0.459374,0.19306 -0.606566,-0.27784 -0.402128,-0.41767 -0.240472,0.20289 0.04777,0.40333 -0.271543,0.10007 -0.101921,0.63314 -0.318123,0.57793 0.05668,0.27471 -0.297811,0.54249 -0.271271,0.76868 -0.02614,0.56334 -0.345284,0.11844 -0.618789,0.11188 -0.04788,-0.19508 -0.578457,-0.0658 -0.494859,-0.27046 -0.353402,0.18421 0.338915,-0.42824 -0.134333,-0.1323 0.066,-0.14332 -0.194376,-0.55635 -0.224223,-0.87893 0.04471,-0.47531 -0.298331,-0.12641 -0.313326,-0.62216 -0.153162,0.006 -0.185929,-0.43378 -0.648599,-0.4714 0.09661,0.4288 -0.200545,0.19528 -0.187755,0.77364 0.01495,0.11979 -0.04367,0.78885 -0.430486,0.43969 -0.02745,0.16195 -0.791413,-0.12145 -0.662573,-0.0339 -0.187524,-0.17461 -0.22452,-0.17737 -0.452652,-0.31549 -0.299391,-0.27864 0.188507,-0.8778 -0.128178,-1.08728 -0.335324,0.0702 -0.33128,-0.3361 -0.701845,-0.48947 -0.317964,0.16864 -0.526041,-0.3185 -0.590183,-0.33955 -0.05882,-0.49968 -0.52875,-0.08 -0.900376,-0.11836 -0.146047,-0.27751 0.252324,-0.68197 -0.17884,-0.72399 0.229509,-0.51469 -0.14866,-0.71247 -0.222471,-0.74031 -0.192664,-0.23659 0.520683,-0.49652 0.08654,-0.56999 0.546055,-0.18349 -0.259706,-0.29277 -0.09966,-0.71019 -0.165438,0.50797 -0.745331,-0.26553 -0.385277,-0.32441 -0.23547,0.0278 -0.511644,0.0995 -0.403786,-0.48905 -0.213615,-0.33194 -0.159844,-1.13856 -0.0739,-1.3842 -0.02991,-0.1893 -0.02752,-0.52828 0.06882,-0.73987 -0.0037,-0.25637 -0.348383,-0.9823 -0.678124,-0.83398 -0.312185,0.13332 -0.196135,0.0325 -0.285202,-0.18417 0.0046,-0.67152 -0.436586,-0.0615 -0.649409,-0.17316 -0.222401,-0.22595 -0.161171,-0.11049 -0.453025,-0.40813 0.217725,-0.14365 0.06318,-0.60107 -0.251712,-0.52598 0.169595,0.0109 -0.373963,-0.45748 -0.455412,-0.11031 0.222673,0.37634 0.27547,0.60337 -0.04858,0.22379 -0.33217,0.11915 -0.318533,-0.42038 -0.6012,-0.13672 0.301778,0.59683 -0.284708,-0.19666 -0.181775,0.35288 -0.735684,-0.2519 -0.384125,0.40224 0.176234,0.26063 0.187981,0.22514 0.17023,0.37972 -0.170167,0.0996 -0.358205,0.0734 0.196255,0.50296 -0.229721,0.35154 0.39551,0.23826 0.343076,0.43298 0.6928,0.8794 0.399416,0.0364 -0.303125,0.58072 -0.370954,0.0949 -0.305102,-0.47426 -1.478312,-0.29457 -1.2146,0.0555 -0.17976,-0.13809 0.106817,0.65733 -0.187995,0.17043 0.05755,0.3947 0.219471,0.36139 -0.03161,0.57553 -0.09091,0.69903 -0.448502,-0.7474 -0.68463,-0.0487 -0.286944,0.50854 0.204286,0.42341 -0.208891,0.79787 -0.203312,0.1318 0.168894,0.37385 0.373122,0.47743 0.144446,-0.38947 0.05585,0.29968 0.233116,0.11247 0.003,0.62687 1.152954,0.66223 0.620124,0.96394 0.148958,0.34456 0.291081,0.21089 0.258852,0.0743 0.172378,0.32052 0.327318,0.95687 0.523138,0.54167 -0.04521,0.21045 0.238474,0.64395 0.119088,0.12128 0.130509,0.40732 0.447697,0.22273 0.528371,0.46914 0.429461,0.16479 0.553601,0.2831 0.754764,-0.0311 0.539672,0.0594 0.578959,0.51817 0.207423,0.76858 0.510146,-0.0707 -0.05776,0.33514 0.120687,0.58066 0.298842,0.0752 0.06762,-0.59797 0.338033,-0.35111 -0.05043,-0.34666 0.561029,-0.2001 0.822423,-0.26893 0.519144,0.008 1.296748,0.52941 1.168516,0.75512 0.64534,0.20809 0.06689,1.09387 -0.500336,0.74655 -0.397148,0.26023 -0.147416,0.72456 0.142437,0.75093 -0.117131,0.34223 -0.179291,0.57557 0.101412,0.79263 0.01852,0.19612 0.412414,0.49842 0.413905,0.76307 -0.246236,0.62778 -0.980667,-0.53845 -1.137106,0.0374 -0.364022,-0.33489 -0.633409,-0.31856 -0.729773,-0.0862 -0.419954,-0.0511 -0.366616,0.66377 -0.429018,0.0403 -0.392294,0.17763 -0.239126,0.75986 -0.0598,0.60948 0.01365,0.38084 -0.144475,0.0635 -0.270154,0.3045 -0.146999,-0.0369 -0.45794,0.5587 -0.475651,0.29698 0.03539,0.005 -0.646446,-0.55891 -0.248602,0.0205 -0.414179,-0.30466 -0.422451,0.2947 -0.291423,0.37209 -0.04385,0.0624 -0.252771,0.4621 0.25502,0.40418 0.258668,-0.0904 0.439247,0.39922 0.674641,0.49996 -0.218919,0.36995 -0.84482,-0.10991 -0.947117,0.67565 0.200771,0.30284 -0.556674,0.9193 -0.630857,0.52443 -0.524531,0.007 0.03016,0.69148 0.247659,0.45745 0.07072,0.33015 0.136027,0.4351 0.401837,0.2792 -0.326922,0.68202 0.491865,0.10976 0.154944,0.67686 0.36281,0.26418 1.068693,0.33246 0.502285,0.49641 -0.453165,0.43145 1.139558,0.53263 0.669976,-0.0173 -0.120241,0.0238 0.495341,-0.0501 0.567053,-0.12614 0.370514,0.42077 0.570449,0.23363 0.990924,0.59038 -0.06485,0.27849 -0.399539,0.44152 -0.493239,0.73586 0.187678,0.0433 -0.118252,0.43614 0.248558,0.30836 0.502119,0.16508 3.4e-5,0.52548 -0.112692,0.50863 -0.03867,0.37828 1.063719,0.57241 0.709402,1.01301 -0.08974,0.29741 0.243321,0.63081 0.555379,0.81824 0.591263,-0.47391 0.631892,0.52978 0.469693,0.60731 0.08828,0.32253 0.224342,0.45709 -0.2304,0.62908 0.480022,0.15169 -0.316745,0.14066 -0.09366,0.30277 -0.571804,-0.13991 0.189285,0.0777 -0.14616,0.28551 -0.05927,0.15023 0.262117,0.3557 -0.116876,0.26168 0.111518,0.18754 -0.395315,0.29675 -0.02199,0.51928 -0.446861,0.004 0.41253,0.22928 0.119964,0.42146 0.218591,0.22957 0.02213,0.54561 0.463604,0.35039 0.0064,0.14589 -0.49639,0.40167 0.02385,0.57093 -0.22977,0.0178 -0.342305,0.0189 -0.453485,0.33411 -0.0042,0.17122 0.301814,0.14901 0.106844,0.28594 -0.1189,0.0722 -0.132012,0.0338 -0.117204,0.255241 -0.390324,0.16583 -0.359967,0.55575 0.04543,0.69777 0.287489,-0.27977 1.084664,0.0197 0.8553,-0.66334 0.0177,-0.182021 0.288203,-0.611111 0.473417,-0.622181 0.340317,-0.38716 0.641981,0.18673 0.706948,-0.1535 -0.252992,-0.29514 -0.08123,-0.24329 -0.0092,-0.4433 -0.195879,-0.033 -0.361074,-0.65334 0.170122,-0.7513 0.07231,0.004 0.296162,-0.33793 0.306339,-0.10835 z"
             id="path20"
             inkscape:connector-curvature="0"
             inkscape:label="path_sark" /></g></g><g
         id="GuernseyParishes"><g
           transform="matrix(1.3333333,0,0,-1.3333333,200,200)"
           id="g23"><path
             style="fill:#cccccc;fill-opacity:1;stroke:#6e6e6e;stroke-width:0.2;stroke-opacity:1"
             d="m -96.053438,-112.74737 c 0.297593,-0.7632 1.324074,-1.95016 -0.259862,-2.05199 -0.514797,-0.69785 -1.408753,-0.34599 -1.565892,-0.98473 -0.359518,-0.68307 -1.515105,-1.0902 -2.064469,-1.52579 0.156457,-0.30144 0.908761,-1.29249 0.658014,-1.18583 -0.08042,-0.16355 -0.422921,0.28491 -0.528179,-0.0605 -0.179481,0.0194 -0.08313,0.0502 -0.204094,-0.24496 -0.32384,-0.0229 -0.0879,1.03349 -0.39274,0.72343 0.32384,-0.3897 -0.16602,-0.57679 -0.21649,-0.54406 -0.41799,0.074 -0.35076,0.40266 -0.23581,0.50941 -0.1591,0.45625 -0.34378,0.0572 -0.31494,0.63751 -0.16035,-0.53052 -0.16106,-0.26833 -0.2068,-0.0788 -0.16069,-0.0264 -0.35601,-0.32974 -0.45249,-0.44351 -0.28119,0.0522 -0.72838,0.2812 -0.75793,0.37254 0.25788,0.12442 -0.17629,0.3554 -0.0335,0.78174 -0.26561,-0.37743 -0.4556,0.36123 -0.48121,0.17142 -0.10965,-0.40405 -0.42923,-0.0811 -0.44671,0.28353 -0.0769,0.26231 -0.003,0.20788 -0.16566,0.35512 0.16562,-0.42799 -0.55754,-0.47262 -0.55247,0.13982 0.34027,0.0695 -0.53238,0.49744 0.14165,0.33671 -0.46081,0.14584 0.0652,0.93456 -0.26232,0.39064 -0.18238,0.32834 -0.27319,0.43195 -0.28447,0.1218 0.013,0.27681 -0.2618,-0.37555 -0.31556,0.2403 0.0759,0.51253 -0.0927,0.22177 -0.0985,0.75407 0.1455,-0.0291 0.14764,-0.24093 0.18316,0.1526 0.20939,0.53104 -0.49214,1.40216 -0.0137,1.90718 -0.16357,0.28762 0.0795,0.18633 0.18965,0.6552 -0.21085,0.30637 0.0132,0.36306 0.30134,0.2216 -0.19652,0.26783 -0.0494,0.84416 -0.089,0.54362 0.38094,-0.33909 0.6641,0.0946 0.73649,0.14027 -0.0976,0.33619 0.3218,0.46827 0.28632,0.0333 -0.0431,-0.0727 -0.23796,-0.45953 0.099,-0.58636 0.32556,-0.0708 0.23753,-0.53222 0.6776,-0.31992 0.11285,0.31975 0.6126,-0.45811 0.63126,0.11593 -0.0991,0.18353 0.33351,0.39375 0.44027,0.4818 -0.0404,0.14194 0.14261,-0.3395 0.32004,-0.19133 0.15735,-0.20194 0.19243,-0.57147 0.39083,-0.60185 -0.1742,-0.56204 1.032344,-0.73454 1.1537,-0.39673 0.197261,0.21197 0.41097,-0.19054 0.63965,-0.18133 0.36872,-0.36921 1.269501,0.0493 1.581608,0.52095 0.175336,0.40883 1.16206,-0.98779 1.512254,-1.1928 z"
             id="path25"
             inkscape:connector-curvature="0"
             inkscape:label="path_torteval" /></g><g
           transform="matrix(1.3333333,0,0,-1.3333333,200,200)"
           id="g27"><path
             style="fill:#cccccc;fill-opacity:1;stroke:#6e6e6e;stroke-width:0.2;stroke-opacity:1"
             d="m -94.295113,-113.3719 c 1.05823,0.74708 2.454085,2.38962 3.552168,2.10466 0.657482,-0.95598 1.035466,-1.33527 1.587171,-2.30533 0.676523,0.52763 1.53963,1.38384 1.771128,0.0261 0.231566,-1.01673 0.279106,-2.03041 1.045198,-2.65086 -0.211546,-1.05464 1.324749,-0.90215 1.449256,-1.075 0.572087,-0.52127 1.055489,-2.60861 0.877996,-3.20679 -0.238883,-0.004 0.08935,-0.45186 -0.257203,-0.27703 -0.148598,-0.14684 -0.449822,0.16462 -0.471304,0.14815 -0.48185,0.1734 -0.336679,-0.25805 -0.615057,0.0562 0.08508,0.13392 -0.264118,0.004 -0.125042,0.22164 -0.50761,-0.0496 0.07751,0.19661 -0.207332,0.26241 -0.184695,0.14141 -0.302601,0.20687 -0.220505,0.34511 -0.02662,0.21869 -0.08399,0.30535 -0.29328,0.35938 -0.07911,-0.0776 -0.512966,0.22233 -0.600955,-0.13078 -0.388786,0.0935 -0.117436,-0.52631 -0.487571,-0.0633 0.0037,0.33019 -0.457902,0.12571 -0.384566,0.3265 0.325061,-0.15841 -0.127178,0.11641 -0.268513,0.2325 -0.07127,0.10429 -0.52663,0.60088 -0.451865,0.0918 -0.12767,-0.21294 -0.295252,0.13221 -0.615522,-0.0838 0.08228,-0.24134 -0.319175,-0.14401 -0.196163,-0.24374 -0.242899,-0.20664 -0.419348,0.13855 -0.670075,0.0914 -0.20994,-0.19143 -0.323035,-0.24418 -0.5528,0.0177 -0.45866,0.12889 -0.241209,0.24197 -0.289585,0.60495 -0.07395,0.48775 -0.587063,0.38084 -0.556243,0.38134 -0.314926,0.25112 -0.399225,0.009 -0.680146,0.14537 -0.362692,-0.0373 -0.468465,1.22428 -1.068452,0.87142 0.437574,0.83889 -0.932448,1.78525 -1.289012,2.0986 -0.981983,0.66257 -1.129395,1.20783 0.01827,1.65141 z"
             id="path29"
             inkscape:connector-curvature="0"
             inkscape:label="path_torteval" /></g><g
           transform="matrix(1.3333333,0,0,-1.3333333,200,200)"
           id="g31"><path
             style="fill:#cccccc;fill-opacity:1;stroke:#6e6e6e;stroke-width:0.2;stroke-opacity:1"
             d="m -93.652721,-96.054595 c 0.862577,-2.040355 3.314867,-2.93688 3.386408,-5.066095 0.858085,-0.47508 -0.25477,-1.56078 1.190414,-1.90063 -0.19816,-1.9975 2.324264,-0.23779 2.340598,-2.10257 1.107689,-1.26515 -0.0036,-2.82325 0.440532,-4.11961 0.442092,-1.25489 1.655935,0.78665 2.205093,0.25773 -0.409316,-0.92596 -0.108188,-1.46323 1.13834,-0.97407 0.603705,-0.88481 1.843162,-1.12186 2.049874,-2.46704 1.000896,-0.35624 1.741447,0.0299 1.451683,-1.33807 1.489358,-0.90135 -1.296248,-1.41776 -0.846276,-2.52187 -0.213966,-0.6061 -0.409345,-1.45082 -0.683734,-2.3717 -0.0032,-0.82809 0.793759,-2.27232 -0.110631,-2.51913 0.121516,-0.17449 -0.10999,-0.1 -0.160602,-0.0836 -0.149785,0.051 -0.322961,0.21508 -0.478073,0.0132 -0.0328,0.12459 -0.484102,-0.0201 -0.487761,-0.10444 -0.06834,-0.23574 -0.403596,0.11416 -0.534173,-0.14046 0.253796,0.22556 -0.660471,0.2088 0.04429,0.3778 -0.07657,0.15808 -0.504152,-0.082 -0.360792,0.18725 -0.100841,0.1613 -0.408604,0.3447 -0.523637,0.46654 -0.553642,-0.85395 -0.417328,2.61262 -1.189652,3.04469 0.03459,0.64901 -1.511241,-0.0818 -1.524577,0.95401 -0.132405,0.79877 -1.082018,0.99021 -0.847976,2.02262 -0.176643,1.09136 -0.625655,2.44734 -1.672423,1.13376 -0.738791,-0.73354 -0.808146,1.13041 -1.32501,1.17568 -0.857569,2.35312 -2.716483,-0.41186 -3.976653,-1.04723 -1.106531,-0.41365 -1.288783,-1.50099 0.01316,-1.8964 0.251926,-0.45531 1.683481,-1.44019 0.958387,-2.21056 -0.136471,-0.16504 -0.289636,0.049 -0.28714,-0.27372 -0.03962,-0.0805 -0.385102,-0.46436 -0.267886,0.0234 0.148426,0.1403 0.06201,0.61642 -0.357769,0.48108 -0.194309,-0.14133 -0.665509,-0.30654 -0.697634,-0.51517 -0.270177,0.0276 -0.190705,-0.63996 -0.356452,-0.44601 -0.207678,0.13821 -0.261274,-0.60581 -0.48147,-0.35029 -0.243535,0.11313 -0.177178,0.39679 -0.537077,0.32725 0.16038,0.3219 -0.267799,-0.18664 -0.301877,0.0743 -0.394213,0.0524 -0.17081,-0.44722 -0.548768,-0.24821 -0.188827,-0.20803 -0.1953,-0.48199 -0.37103,-0.36625 -0.202559,-0.087 -0.326021,-0.008 -0.424081,-0.17937 -0.381438,-0.36067 -0.09188,0.43315 -0.495123,0.0701 -0.02805,0.0473 0.138101,0.14408 -0.161691,0.009 -0.369381,-0.0413 0.418579,0.77793 -0.08092,0.35205 -0.206617,0.10083 -0.280493,0.12263 -0.581947,0.0863 0.04313,-0.62617 -0.413997,0.44342 -0.757032,0.73187 -0.262461,0.45568 0.50258,0.38984 0.704358,0.69379 1.209478,0.34471 1.090145,1.59834 2.241441,1.56598 0.854874,0.6235 2.181463,0.89279 1.026828,2.04294 0.08063,0.78177 -1.510716,1.07013 -1.436292,1.865 0.540652,0.50496 1.339404,1.4138 0.725031,2.10873 -0.220509,0.25185 -0.690864,-0.29271 -0.603293,0.0682 -0.103661,0.0864 0.136533,0.47161 0.377462,0.17457 0.05818,-0.42949 0.43096,0.15092 0.423268,-0.15437 1.301444,0.82975 1.399781,2.54122 1.631798,3.88402 0.06535,0.0825 0.03918,0.69997 0.02738,1.04978 0.06314,0.72087 -0.221058,1.86141 -0.236424,1.9939 -0.09196,0.93852 -0.454814,2.306683 -1.30728,2.805217 -0.321639,-0.255893 -0.549108,-0.527496 -0.785965,0.02612 -0.414717,-0.1949 -0.504612,0.954768 -1.157686,0.519168 -0.127514,-0.09779 -0.617074,-0.189815 -0.618522,0.01058 -0.251591,0.03007 -0.245235,0.142559 0.0053,0.24853 -0.1242,0.132661 0.336535,0.145341 0.320677,0.339007 -0.08178,0.269059 0.433525,0.227805 0.400177,0.714086 0.135879,0.217382 -0.09122,1.046744 0.275522,0.580522 0.375251,-0.395727 0.931515,-0.157633 0.980177,-0.83869 1.010127,-0.306939 1.65895,0.872954 2.495643,1.282435 0.295187,0.137864 0.565111,0.638804 0.721499,0.473906 z"
             id="path33"
             inkscape:connector-curvature="0"
             inkscape:label="path_st_pierre_du_bois" /></g><g
           transform="matrix(1.3333333,0,0,-1.3333333,200,200)"
           id="g35"><path
             style="fill:#cccccc;fill-opacity:1;stroke:#6e6e6e;stroke-width:0.2;stroke-opacity:1"
             d="m -101.42644,-93.942038 c 0.13678,0.309171 0.0774,-0.0933 0.23875,-0.08676 -0.19935,-0.398965 0.67925,0.232406 0.24836,-0.189956 -0.21577,-0.133931 -0.0449,-0.194881 -0.21932,-0.512922 0.25094,-0.542446 -0.0984,-0.729812 0.056,-1.290974 0.37777,-0.229908 0.56757,-0.8394 0.27945,-0.916771 0.0805,-0.362383 -0.30243,-0.531171 -0.29675,-0.686914 -0.17994,0.02641 -0.15239,0.223147 -0.34036,0.156437 -0.17779,0.174901 0.38737,0.284903 -0.0318,0.387594 0.23798,-0.006 0.56875,0.122829 0.31791,0.545028 -0.0672,0.04016 -0.26342,0.616141 -0.50124,0.235801 -0.0846,0.339124 -0.64586,0.558384 -0.70249,0.410331 -0.21783,0.22798 -0.29597,0.01633 -0.4626,0.201255 -0.18569,-0.0016 -0.41021,-0.257114 -0.51891,-0.01395 -0.14205,0.04061 -0.49765,0.161247 -0.58349,0.332801 -0.062,-0.239473 -0.0968,-0.05553 -0.1026,-0.04085 0.12373,0.205522 0.45876,0.780674 0.42889,0.770848 -0.3971,-0.195094 0.54115,0.784904 0.14868,0.255724 0.13383,0.147503 0.41809,0.228331 0.1214,-0.03604 0.29004,0.122567 0.15036,-0.282692 0.47972,-0.142452 -0.0372,-0.272512 0.3568,-0.0076 0.5115,-0.182767 0.34878,-0.104114 0.42964,0.299613 0.65361,0.392971 -0.0774,0.214041 -0.22124,0.09387 -0.0199,0.262362 -0.007,0.116167 0.28812,0.286667 0.14817,-0.115391 0.007,0.109219 0.10374,0.232549 0.14692,0.264588 z"
             id="path37"
             inkscape:connector-curvature="0"
             inkscape:label="path_st_pierre_du_bois" /></g><g
           transform="matrix(1.3333333,0,0,-1.3333333,200,200)"
           id="g39"><path
             style="fill:#cccccc;fill-opacity:1;stroke:#6e6e6e;stroke-width:0.2;stroke-opacity:1"
             d="m -84.375942,-93.754162 c -0.787928,-0.452157 -1.356942,-1.321868 -0.609253,-2.227303 0.423996,-1.21256 1.027376,-2.478263 2.27035,-2.959866 0.928729,0.03353 1.74339,0.350686 2.095679,-0.725715 0.774118,-0.808034 1.309959,-1.714464 2.145466,-2.456784 0.543986,-1.59442 2.528671,-0.22977 3.521306,-0.89249 0.545923,-1.48587 2.976618,1.77695 3.328664,-0.37409 0.128923,-1.13492 2.191228,-2.10095 0.668875,-3.254 -1.311786,-0.839 -1.597124,-2.62404 -2.932609,-3.4813 0.278321,-0.70727 -1.682483,-1.01999 -2.21624,-1.89782 -0.27089,-1.24788 -1.7015,0.37465 -1.876162,-0.99987 -0.270123,-0.59719 -1.159693,-1.98985 -1.532573,-0.39523 0.689012,1.49521 -1.857868,0.11629 -1.907153,1.89296 -0.299782,0.80301 -1.319153,1.00946 -1.721902,1.56627 -1.527379,-0.64869 -1.088611,0.31744 -0.955617,1.12635 -0.878893,-0.0684 -1.893412,-1.61323 -2.304162,-0.17719 0.110099,1.45485 0.409244,3.09663 -0.559742,4.46325 -0.456479,0.98583 -2.330364,-0.2281 -2.161227,1.59677 -1.096856,0.22504 -0.641347,1.05511 -0.844472,1.53441 -0.645237,0.6064 -0.345125,1.764101 -1.256114,2.312548 -0.480587,0.704334 -3.944616,3.824242 -1.614579,3.205658 0.4686,-0.05612 0.992945,0.497673 1.140404,0.532855 0.174373,-0.264924 -0.04104,-0.721428 0.435614,-0.948945 0.866826,-0.872021 2.141189,-0.921221 2.86189,0.253632 0.728434,0.474815 1.554606,1.928173 0.73554,2.261676 -0.146123,0.360596 0.384483,0.937852 0.750768,1.05186 0.576828,0.273148 0.370026,1.052951 0.32328,1.298236 0.314379,-0.224074 0.721087,-0.249262 1.198601,-0.271911 0.214292,-0.206159 0.007,-0.851766 0.589314,-0.913508 -0.451772,-0.446081 -0.11856,-1.018682 0.426054,-1.120453 z"
             id="path41"
             inkscape:connector-curvature="0"
             inkscape:label="path_st_saviour" /></g><g
           transform="matrix(1.3333333,0,0,-1.3333333,200,200)"
           id="g43"><path
             style="fill:#cccccc;fill-opacity:1;stroke:#6e6e6e;stroke-width:0.2;stroke-opacity:1"
             d="m -71.814611,-110.61804 c 1.153506,-0.68961 3.200637,0.48744 4.03504,-0.88688 -0.711611,1.10644 0.62272,0.13188 0.925714,0.79592 0.877781,0.0913 0.212404,-1.57477 1.496149,-0.565 0.590686,0.17159 -1.28592,-1.3147 0.12979,-1.21498 -0.226281,-1.4905 -1.68297,-1.12551 -2.475574,-1.56738 0.161339,-0.79795 0.579008,-2.4503 1.363852,-0.74276 -0.101754,0.33448 0.898288,0.83595 0.851979,0.14824 0.226658,-0.64942 -1.001453,-0.90806 -1.53171,-1.01993 0.107302,-0.51076 0.341379,-1.29423 -0.157059,-1.68734 -0.226324,-0.34014 -0.511685,-0.75793 -0.24152,-0.83211 -0.08567,-0.0791 0.447188,-0.52334 0.157776,-0.36951 0.170917,-0.34337 -0.250349,-0.25563 -0.187696,-0.0875 -0.117199,-0.13508 -0.214049,-0.0775 -0.429648,0.0465 -0.365408,-0.28598 0.02076,-0.93658 0.179291,-1.10495 0.07003,-0.0796 -0.115895,-0.30931 -0.136587,-0.33767 -0.08407,-0.55046 -0.546703,-0.56272 -0.352408,-0.0757 -0.268917,0.32358 -0.75001,-0.37579 -0.556299,-0.57516 -0.196563,-0.45468 -0.566362,0.0626 -0.603411,-0.1395 -0.08964,0.0262 -0.253771,-0.156 -0.383893,-0.0346 0.195268,0.57296 -0.402196,-0.32174 -0.37352,0.14802 -0.326566,0.29725 -0.151989,-0.41483 -0.441659,-0.28617 -0.199352,0.54712 -0.210503,0.0197 -0.29055,0.081 0.0561,-0.43712 -0.416477,0.41029 -0.571971,0.16554 0.0367,-0.35294 0.03593,-0.75931 -0.03321,-0.80526 0.717577,-0.3513 -0.103136,-0.50056 0.152349,-0.89871 0.21654,-0.30529 -0.195491,-0.80807 -0.463948,-0.34736 -0.09392,0.43874 -0.138977,0.50134 -0.196006,0.63932 -0.03394,0.36565 -0.114161,0.23939 -0.469454,0.54456 -0.152809,0.13432 -0.02724,-0.3954 -0.251698,-0.16308 0.038,-0.22941 -0.147195,-0.39913 -0.169983,-0.0159 0.09587,0.048 -0.231792,0.0904 -0.217863,0.11348 0.167914,-0.50203 -0.132437,0.0451 -0.08513,0.009 -0.175899,0.18601 -0.554049,-0.39527 -0.694898,0.0808 0.128467,-0.6409 -0.709157,-0.1213 -0.804699,0.008 0.115586,-0.3324 -0.276212,-0.0534 -0.101216,0.0554 -0.247903,-0.13792 -0.34281,0.01 -0.523771,-0.12712 -0.282063,0.11476 -0.210297,0.33389 -0.43853,0.41733 0.0067,0.24208 -0.05251,0.34398 -0.189491,0.11871 -0.52307,0.34134 0.112813,-0.49716 -0.350323,-0.11846 -0.02895,0.28087 -3.4e-4,0.022 -0.133856,0.0873 -0.0909,-0.0204 -0.05802,-0.47088 -0.453372,-0.25381 -0.444278,-0.072 -0.90854,0.31985 -1.170246,0.53135 -0.209439,-0.0666 -0.269348,-0.14911 -0.32283,-0.36991 -0.359808,0.0725 -0.816688,-0.0358 -0.744999,-0.22134 -0.128998,-0.0672 -0.326162,0.2167 -0.138616,-0.23206 0.112773,-0.12116 -0.05397,-0.32681 -0.316708,-0.0688 0.127876,-0.15292 0.01503,-0.36955 -0.08263,-0.34066 -0.09201,-0.0308 -0.398749,0.21706 -0.410875,0.11854 -0.298896,-0.0342 -0.348114,0.009 -0.408728,0.33452 0.184305,0.40638 0.01819,0.48019 -0.241374,0.93191 -0.156397,1.30675 -0.56556,2.7014 0.282481,3.68091 -0.615712,1.4064 1.294115,2.08097 1.992826,3.4017 0.28129,0.93066 0.911021,1.54557 1.98419,1.0566 1.284167,-0.71761 1.736099,0.82583 2.202026,1.37172 0.893528,-0.19958 1.684586,0.70069 2.394495,0.60298 z"
             id="path45"
             inkscape:connector-curvature="0"
             inkscape:label="path_forest" /></g><g
           transform="matrix(1.3333333,0,0,-1.3333333,200,200)"
           id="g47"><path
             style="fill:#cccccc;fill-opacity:1;stroke:#6e6e6e;stroke-width:0.2;stroke-opacity:1"
             d="m -67.661382,-110.56829 c 1.096035,0.11269 0.339631,-0.91796 -0.342153,-0.26648 0.872239,-1.78474 -1.688111,0.99634 0.342153,0.26648 z"
             id="path49"
             inkscape:connector-curvature="0" /></g><g
           transform="matrix(1.3333333,0,0,-1.3333333,200,200)"
           id="g51"><path
             style="fill:#cccccc;fill-opacity:1;stroke:#6e6e6e;stroke-width:0.2;stroke-opacity:1"
             d="m -76.417143,-112.61187 c 0.366879,1.1932 2.213297,1.7202 2.667157,2.27753 0.140383,0.74969 1.294201,1.59066 1.712465,2.51993 0.959721,0.99275 1.551066,2.04143 2.564298,2.82143 0.262208,1.04873 1.601978,1.81946 2.053939,2.95873 0.226485,0.72146 0.964672,1.11585 1.408547,2.065406 1.287698,0.412293 2.043938,2.269835 3.041809,2.892371 0.510482,1.763879 1.721028,4.053572 2.211059,5.306704 0.02007,-0.998045 1.812266,-0.432897 0.954861,-1.77027 -0.281998,-0.586334 -0.203459,-1.210356 0.429329,-1.688538 -0.219049,-1.190161 1.008036,-2.266061 1.294928,-3.189829 -0.679414,-0.693273 0.667255,-1.37111 0.314475,-2.208164 0.500053,-1.17668 -0.149294,-2.14859 -0.890927,-2.96663 0.02429,-0.80393 0.61583,-1.58933 -0.163815,-2.28792 -0.374547,-0.83922 -2.410946,-0.19392 -2.103787,-1.50526 -0.88232,-0.0958 -1.503629,-0.40373 -1.098249,-1.36701 -0.149857,-1.05487 -2.03554,-1.07843 -2.495979,-1.32459 -0.496558,-0.1754 -0.282108,-0.83709 -0.766996,-1.18017 -1.205918,-0.90381 -0.815571,0.36621 -1.446076,0.53498 -0.749777,0.14792 -1.756331,0.44897 -1.991985,-0.10145 -1.157261,0.12094 -2.427057,-0.2254 -3.377694,0.25096 -0.91121,-0.77934 -2.687044,-0.32102 -2.695899,-1.54058 -0.06809,-0.56014 -1.136853,-0.86763 -1.62146,-0.49763 z"
             id="path53"
             inkscape:connector-curvature="0"
             inkscape:label="path_st_andrew" /></g><g
           transform="matrix(1.3333333,0,0,-1.3333333,200,200)"
           id="g55"><path
             style="fill:#cccccc;fill-opacity:1;stroke:#6e6e6e;stroke-width:0.2;stroke-opacity:1"
             d="m -56.677797,-104.90634 c 0.400369,-0.0393 1.06546,0.57395 1.211515,-0.0246 1.169596,-0.005 2.124562,0.7832 2.929839,1.11785 0.762495,-0.62915 0.497366,-1.52412 0.366135,-2.23377 0.357314,-0.50532 -0.11398,-1.10659 0.31276,-1.61115 0.375889,-0.66278 -0.615518,-1.98882 0.639824,-2.11251 0.803063,-0.50067 2.029151,-0.88097 2.406538,-1.6028 -0.572458,-0.58257 0.02558,-1.27971 0.614687,-1.39921 0.251383,-0.0752 0.193674,-0.19293 0.495242,-0.23547 0.188557,-0.10161 -0.06741,-0.65881 0.115941,-0.66337 -0.0778,-0.25091 0.260234,-0.46818 0.207147,-0.7353 -0.244201,-0.3247 0.126765,-0.4924 0.18939,-0.60292 0.297401,0.13904 0.745553,0.0338 0.232812,-0.2232 -0.08079,-0.31825 -0.348981,-0.27754 -0.23584,-0.56678 0.222024,-0.15341 0.561358,9e-4 0.392961,-0.23728 0.164934,-0.24226 0.364629,-0.47136 0.381684,-0.55598 0.308876,0.4269 0.162963,0.12795 0.06086,-0.0741 0.417693,-0.14424 0.172765,-0.40142 0.308948,-0.71182 -0.110242,-0.2524 -0.33042,-0.32446 -0.150033,-0.43602 -0.128852,-0.20182 0.06793,-0.0677 0.277799,-0.21757 0.106435,-0.18405 0.217428,-0.38421 0.02057,-0.68591 0.357897,0.38918 0.797825,-0.13411 0.423974,-0.17114 -0.03663,-0.0332 -0.394734,0.0504 -0.185162,-0.14235 -0.361248,-0.19219 0.564046,-0.47928 0.116114,-0.74158 0.119903,0.0871 0.280361,-0.70464 -0.02576,-0.34936 -0.04082,0.37327 -0.199388,0.14564 -0.318557,0.54089 0.07773,0.3718 -0.426661,0.10898 -0.362738,0.37243 -0.296397,-0.10073 -0.384429,0.0398 -0.490391,-0.24297 -0.04685,0.019 0.18112,-0.5869 0.03419,-0.58696 -0.03475,0.0937 -0.0205,-0.46172 -0.0401,-0.48411 -0.01012,-0.17558 -0.275021,-0.2263 -0.271536,-0.15416 0.04203,-0.0925 -0.285648,-0.13408 -0.434459,0.0899 0.03745,-0.23916 -0.415605,-0.1044 -0.156694,-0.32974 -0.08581,-0.18565 -0.05311,-0.27598 -0.107698,-0.0856 -0.114383,-0.37135 -0.224168,0.23256 -0.529205,0.18225 -0.03666,-0.16141 -0.16357,-0.36021 -0.232801,-0.38243 -0.401045,0.20123 0.0073,-0.31588 -0.272034,-0.14696 0.126578,-0.26926 -0.422368,0.0366 -0.277412,-0.27667 -0.229849,0.13725 -0.01934,-0.36691 -0.201771,-0.42922 -0.209117,-0.27802 -1.291964,0.0572 -0.740081,0.44084 0.231516,-0.0553 0.293052,0.10384 0.167123,0.22341 0.0097,0.0928 0.151665,0.43861 -0.132566,0.1905 -0.282285,0.0271 -0.126777,0.1388 -0.376368,-0.0916 -0.354549,0.49346 0.180708,0.59907 -0.01521,0.87518 -0.453613,0.0957 0.432904,0.41309 0.09168,0.50819 0.0061,0.28547 0.159976,0.42628 -0.152921,0.67051 0.234978,0.19703 0.481742,-0.1559 0.524417,0.17192 -0.204982,0.46815 0.380498,0.80854 0.249303,1.31785 0.53704,0.479 -0.401535,0.22158 -0.416634,0.21241 0.140603,0.2491 -0.175856,-0.0537 -0.169238,0.0825 -0.02835,0.42218 -0.29837,-0.43842 -0.379205,-0.1679 -0.004,0.15751 -0.197183,-0.13117 -0.06842,0.26236 -0.138048,-0.0519 -0.519615,-0.52014 -0.407522,-0.16525 -0.126592,-0.24922 -0.225488,-0.10931 -0.176185,-0.0631 -0.267537,-0.034 -0.01022,0.20488 -0.022,0.40252 -0.21292,-0.33398 -0.0787,0.31385 -0.236961,-0.17989 -0.136865,-0.13747 -0.206548,0.006 -0.08093,0.18966 0.01461,0.14077 -0.05139,0.19772 -0.100913,0.0203 -0.04413,-0.15392 -0.179618,-0.0444 -0.0893,0.11609 -0.217317,-0.29115 -0.352293,0.38882 -0.530421,-0.0613 0.0055,0.31038 -0.311152,0.11624 -0.347788,0.34267 -5.35e-4,0.001 -0.324815,0.42209 -0.44037,0.12412 -0.257377,-0.10596 -0.400846,-0.26816 -0.427192,-0.42833 0.05284,-0.16536 0.0029,0.0184 -0.274115,-0.13548 0.02618,-0.3356 0.05295,-0.64012 -0.164606,-0.77961 6e-6,-0.0653 -0.162616,-0.42685 -0.279941,-0.48241 -0.129371,-0.29797 -0.07219,-0.53251 -0.469964,-0.33163 -0.0054,0.21819 -0.271647,-0.0803 -0.197346,0.19852 -0.313849,0.3429 -0.660066,0.17169 -0.597608,-0.25188 -0.107886,0.0128 0.242862,-0.50899 0.08074,-0.514 0.05434,-0.39844 -0.280872,0.48799 -0.128888,-0.16901 0.01894,0.14221 -0.235941,-0.12842 -0.187461,0.25126 -0.133192,-0.1224 -0.160487,-0.20172 -0.249572,-0.3846 -0.165964,-0.15059 -0.118137,0.31139 -0.125518,-0.10992 -0.13866,-0.16745 -0.317281,0.88783 -0.41628,0.46189 -0.06964,-0.25919 -0.275775,0.45766 -0.303727,-0.002 -0.136563,0.0574 -0.25949,0.20475 -0.482541,0.33172 -0.309931,-0.0208 -0.293773,-0.50891 -0.211303,-0.64432 -0.155417,0.0933 -0.191571,-0.19777 -0.0331,-0.30667 0.192942,-0.35399 0.33779,-0.38259 0.512086,-0.91499 0.116751,-0.31269 -0.197349,-0.46303 -0.266545,-0.37403 -0.102058,-0.003 -0.157167,-0.20815 -0.420481,-0.0632 0.09254,-0.34095 -0.107937,-0.003 0.008,-0.45391 -0.199915,0.26741 -0.324411,0.47263 -0.506322,0.42078 -0.0046,-0.2348 -0.174801,-0.29556 -0.217151,-0.38703 0.04906,-0.27602 -0.187285,-0.11166 0.06812,-0.39277 -0.434442,0.11571 0.08847,-0.29548 -0.193903,-0.16449 -0.162027,0.13837 -0.103683,-0.20629 -0.157048,-0.35368 -0.423664,0.0803 0.398622,-0.26533 -0.191346,-0.0934 -0.36455,0.24532 -0.137103,-0.31892 -0.425886,-0.0838 0.207808,-0.42007 -0.157386,-0.6656 -0.346981,-0.0635 -0.07331,0.0673 -0.359839,-0.1041 -0.241739,0.2017 0.056,0.15064 0.57533,-0.0493 0.14391,0.29098 -0.176201,0.07 -0.119463,0.26907 -0.10531,0.28356 -0.328292,0.18062 -0.542675,0.63917 -0.542566,0.2391 -0.104439,0.16013 -0.03516,-0.0153 -0.277659,0.0103 0.0052,0.31355 -0.278081,0.33764 -0.112857,0.5676 -0.146935,-0.0242 -0.614039,0.63039 -0.173594,0.23541 0.256416,-0.0128 -0.0618,0.21974 -0.230345,0.46558 0.299946,0.23409 0.253702,0.22736 0.248888,0.58392 0.105779,0.14985 0.252285,0.60323 0.02752,0.43198 -0.278755,0.15376 0.07705,0.29241 -0.01103,0.33832 -0.01426,0.30675 -0.164867,-0.15506 -0.260523,0.0704 -0.205611,0.28018 -0.265165,-0.21301 -0.453596,-0.0696 -0.305502,0.19859 -0.561867,0.24235 -0.665231,0.54551 -0.07769,-0.0515 -0.164595,0.84309 -0.604711,0.39385 -0.05388,-0.26392 -0.679539,-0.65935 -0.767759,-0.26386 -0.201206,-0.15687 -0.114122,0.11287 -0.392254,0.26638 -0.105625,-0.31076 -0.322043,0.49921 -0.292097,0.006 -0.151946,-0.0204 -0.336481,0.50763 -0.382318,-0.0584 0.0089,-0.24576 -0.465071,-0.0538 -0.403793,-0.14711 -0.138188,0.31217 -0.138799,-0.4138 -0.248569,0.14458 -0.20539,0.22159 -0.225341,-0.23261 -0.319903,0.15161 -0.301071,0.66324 -0.33481,0.10605 -0.180794,-0.19255 -0.303219,0.54659 -0.222478,0.0142 -0.374025,0.0456 -0.0063,0.64641 -0.133233,0.054 -0.208516,0.28068 0.131619,0.16832 -0.127113,-0.0885 -0.232195,0.0835 -0.09829,0.0679 -0.428107,0.2234 -0.427888,0.59152 0.443181,0.36082 0.332145,1.11339 0.15153,1.58629 0.191218,0.29928 0.985011,0.24037 1.335575,0.57559 0.422983,0.11671 0.2672,1.3523 -0.395798,0.74264 -0.76428,-1.9508 -1.463551,-0.80182 -1.62207,0.43841 0.927425,0.3107 2.246953,0.11699 2.507143,1.58392 -1.640734,0.19775 0.811567,1.13939 0.263832,2.13004 0.505947,0.25246 0.822811,0.47408 1.699534,0.49736 1.208231,0.34981 1.352988,1.11418 1.088324,2.1503 0.689976,0.11101 1.592932,0.14705 1.372274,1.01624 1.178339,0.10741 2.358717,0.58318 2.378575,1.86548 -0.595508,0.93382 0.0627,1.67391 0.618914,2.42775 0.272198,0.61878 0.921086,-1.0607 0.998115,-1.25006 -0.09117,-0.44307 -0.0386,-0.87775 0.102685,-1.31215 z"
             id="path57"
             inkscape:connector-curvature="0"
             inkscape:label="path_st_martin" /></g><g
           transform="matrix(1.3333333,0,0,-1.3333333,200,200)"
           id="g59"><path
             style="fill:#cccccc;fill-opacity:1;stroke:#6e6e6e;stroke-width:0.2;stroke-opacity:1"
             d="m -54.107112,-88.407378 c 0.824881,-0.04224 1.4368,-0.719411 2.320013,-0.650163 0.693024,-0.436363 1.538969,0.820904 1.884242,0.01979 0.394964,-0.0822 0.613491,-0.27592 0.748246,-0.55908 0.693895,0.627703 1.824888,0.05955 1.481827,-0.689442 -0.809245,-1.202487 -1.558377,-3.016927 -0.04896,-4.038366 0.426913,-0.48203 0.850133,0.122309 1.241895,-0.668701 0.191339,-0.667461 0.236527,-0.528881 -0.376548,-0.281769 -0.483768,0.04913 -0.894986,-0.869268 -0.854239,-1.336987 0.523942,-0.396949 1.568467,-0.179295 2.027159,-0.184607 -0.01521,0.271412 -0.598134,1.610078 -0.283445,1.632802 0.31264,-1.213293 0.729357,-2.605704 1.133804,-3.475837 -0.135957,0.724732 -1.76945,1.736205 -0.858389,0.243365 -0.235105,-0.585508 -0.680228,1.494114 -0.597113,0.56711 -0.227304,0.77314 0.07833,-0.606995 -0.253038,0.439287 -0.431826,-1.233 -0.681907,0.488351 -1.465645,-0.05636 -0.157259,-0.20927 -0.45846,-1.347051 0.04398,-0.872496 0.194984,0.549905 0.55976,1.031749 0.03451,-0.195496 0.635373,0.23201 0.185693,-0.844525 0.190225,-0.170292 -1.211663,0.745902 -0.758848,-1.87352 -0.08423,-0.644265 0.102739,0.719274 0.260111,-0.512932 0.340409,-0.536847 -1.030998,0.748484 -1.238911,-1.480628 -0.06947,-0.818458 0.0992,1.640169 -0.28602,-0.62872 0.719066,0.16269 0.741897,0.33319 -0.543909,0.929623 -0.268334,0.669057 0.217205,0.712841 0.621,-0.668427 0.564087,-0.01327 0.259475,-0.304137 1.033338,0.339763 1.031495,-0.430337 0.56231,-0.0723 1.58944,1.126441 1.671784,0.92873 -0.580977,-0.355831 -1.0144,-0.585317 -0.597193,-0.8077 0.04042,-0.16727 0.134572,-0.35307 0.0048,-0.2936 0.329379,-0.44997 -0.204463,-1.00567 -0.440055,-0.37955 -0.210753,0.34642 -0.564637,0.42613 0.02069,0.69076 -0.842316,-0.26021 -2.448822,-0.81388 -3.599314,-0.85354 -0.262061,-0.71294 0.03863,-1.24021 0.440375,-1.46114 0.386472,-0.20643 0.696464,-0.25578 0.972607,-0.56344 0.284249,-0.12283 0.298476,-0.34252 0.609882,-0.55245 0.310317,0.12136 0.09674,-0.42722 0.194156,-0.31616 -0.494584,-0.36646 0.139197,-0.82909 0.310281,-1.13494 -0.24867,-0.0943 -0.631186,0.10968 -0.839626,0.1697 0.14985,-0.35763 -0.383983,-0.25406 -0.652603,-0.32917 -0.134712,-0.0885 0.08298,-0.66228 -0.234309,-0.3578 -5.49e-4,-0.22506 -0.05908,-0.53138 0.167017,-0.8971 0.0029,-0.32158 -0.1366,-0.39014 -0.02614,-0.61579 -0.07012,-0.12502 0.291394,-0.56517 -0.02703,-0.48828 0.320411,-0.22883 -0.167424,-0.87522 -0.221609,-1.3123 -0.09245,-0.2547 -0.264356,-0.32399 -0.126543,-0.75003 0.0213,-0.4981 0.24523,-0.79287 0.308162,-1.17623 -0.332586,-0.003 0.08151,-0.70174 -0.354058,-0.37703 -0.270649,-0.0682 -0.526948,0.48101 -0.787316,-0.0434 -0.304209,0.10423 -1.070481,0.66724 -1.536398,0.91782 -0.814711,0.60245 -1.965464,0.55156 -1.635202,1.86606 0.45924,0.7017 -0.55125,1.4169 -0.140618,2.16943 -0.441727,0.42541 0.173524,1.02091 0.0189,1.51248 -0.342546,0.82831 -0.589659,1.20021 -1.303967,0.54488 -0.746272,-0.41974 -1.586609,-0.87071 -2.283288,-0.53113 -0.640636,0.0437 -1.433427,-0.48784 -1.233661,0.75646 0.186763,1.16673 -1.332995,1.7801 -0.890013,3.05806 -0.06497,0.77223 -0.05907,1.31627 -0.576076,1.914873 0.0027,0.559205 0.656609,1.000107 -0.34393,1.433769 -0.946021,0.970926 -0.252728,2.573256 -1.515012,3.050764 0.745888,0.852104 0.788287,2.300944 -0.377876,2.177864 -0.709065,0.917095 0.421291,0.407325 0.650976,0.79977 -0.260745,0.883362 0.128849,2.369587 0.795722,2.994945 1.437559,-0.10229 3.141831,-0.05612 4.683416,-0.23048 -0.147951,0.2949 0.05401,0.440048 0.29157,0.373559 z"
             id="path61"
             inkscape:connector-curvature="0"
             inkscape:label="path_st_peter_port" /></g><g
           transform="matrix(1.3333333,0,0,-1.3333333,200,200)"
           id="g63"><path
             style="fill:#cccccc;fill-opacity:1;stroke:#6e6e6e;stroke-width:0.2;stroke-opacity:1"
             d="m -67.207796,-79.449617 c 1.060626,-1.005998 2.526093,-2.015827 1.778248,-3.532739 -0.03875,-0.952156 1.232925,-3.360775 1.88173,-1.86608 0.981058,-0.641063 -0.508058,-1.40177 -0.118245,-2.339067 0.161851,-1.436475 2.114365,-0.546548 2.01877,-2.246676 0.08799,-0.933141 1.061734,-0.922211 0.359597,-1.812839 -0.325417,-0.618237 0.942361,-0.234962 0.231714,-1.075865 -0.638261,-1.666766 -1.510723,-3.729079 -2.261676,-5.088027 -1.074408,-1.005503 -1.715035,-2.234165 -2.972712,-2.89179 -0.473711,-0.96201 -0.935723,-1.16966 -1.326978,-1.96916 -0.568394,-1.23915 -1.761318,-2.0925 -2.232412,-3.11465 -0.866157,-0.97085 -0.473881,0.81977 -1.361003,0.95461 -0.363896,0.82627 -0.63302,2.58533 -1.875159,1.50132 -0.983274,-0.3625 -1.547631,-0.83108 -2.087005,0.0747 -1.270735,0.1489 -2.91211,-0.64488 -3.433956,0.95982 -1.033373,0.69735 -1.491332,1.82157 -2.385012,2.676063 -0.453904,0.919659 -2.112167,-0.38559 -2.588611,0.906173 -0.991344,0.710688 -1.279823,2.032533 -1.706319,3.14616 -0.293004,0.63344 0.685007,1.477965 1.078231,1.290095 1.651617,-0.556688 3.426836,0.187542 4.926679,0.809426 1.8216,0.997088 2.778246,3.37802 1.566077,5.102914 -0.709177,0.05596 -1.386146,0.125779 -1.718947,0.487279 -0.226252,0.04848 -0.279031,0.08873 -0.465647,0.37666 -0.142526,-0.03286 -0.316026,0.245797 -0.139418,0.242121 0.279127,0.120719 0.380368,-0.135783 0.489652,0.01454 0.301028,-0.209572 0.453148,-0.255955 0.744858,-0.467682 0.372277,-0.02093 0.661086,0.09613 0.738467,0.197396 0.106658,0.33105 0.400755,0.05277 0.215917,0.622016 0.195266,0.197903 0.277031,-0.533215 0.289412,-0.03022 0.14064,0.121404 0.654016,-0.0649 0.25657,-0.606237 0.0171,-0.569543 0.881054,-0.576313 0.67705,-1.179363 0.601462,-0.412874 1.148624,0.206023 0.949624,0.621376 0.08342,0.25213 -0.315484,1.285278 -0.0053,0.724482 -0.09398,0.09944 0.548797,-0.550357 0.576261,0.04205 0.131402,0.190491 0.35668,0.08682 0.244626,0.442898 0.505327,0.03364 0.567901,-0.08583 0.874442,-0.168727 0.141461,-0.141499 0.33152,0.06145 0.416511,0.162598 0.344688,-0.386223 1.210531,0.04032 1.756918,0.262828 0.215115,0.377101 1.171757,0.599165 1.143651,1.424012 0.376295,0.75535 1.004893,2.097775 0.968732,2.895343 0.614403,0.62429 0.623032,1.936666 0.02403,2.566714 -0.130327,0.565019 -0.763975,0.157269 -0.986305,0.463696 0.200084,0.05458 0.272629,0.524582 0.17979,0.638304 0.29538,-0.474722 0.512704,0.158439 0.676327,-0.306311 0.07129,-0.461723 0.507509,0.119802 0.471411,-0.277323 -0.06564,-0.581448 1.065854,-0.373725 1.111055,0.238375 0.464703,0.161115 0.146968,0.188977 0.289193,-0.375741 0.147106,-0.254153 0.447691,-0.440475 0.729159,-0.495449 z"
             id="path65"
             inkscape:connector-curvature="0"
             inkscape:label="path_castel" /></g><g
           transform="matrix(1.3333333,0,0,-1.3333333,200,200)"
           id="g67"><path
             style="fill:#cccccc;fill-opacity:1;stroke:#6e6e6e;stroke-width:0.2;stroke-opacity:1"
             d="m -56.479503,-72.076189 c 0.754408,-0.213642 1.57344,-0.168303 0.878782,-1.080777 -0.275005,-0.379926 -0.573816,-0.803661 -0.07092,-1.230534 0.308587,-0.636451 1.422757,-1.235719 2.07191,-0.874964 0.309773,-0.0026 0.0047,-0.348428 0.03807,-0.577875 0.561179,-0.86368 -1.233383,-0.997737 -1.242719,-1.682202 -0.737148,0.472348 -1.032656,-0.290956 -1.805012,-0.375886 -0.865989,-0.154391 -0.832792,-1.271024 -1.495414,-1.110405 0.01887,-0.95047 -1.831944,-0.520097 -0.978804,-1.607161 -0.0331,-0.566179 0.06908,-0.959287 -0.367071,-1.385978 0.550587,-0.75378 -0.958968,-1.410297 0.31766,-1.568393 1.027335,0.385449 0.902649,-1.436132 1.819148,-1.596417 -1.364372,-0.12396 -0.108435,-1.845571 -0.611771,-2.136281 -0.748357,0.03655 -1.761414,-0.679263 -1.478587,-1.536442 -0.568149,-0.961908 -0.492494,-2.184884 -0.625234,-2.910545 -1.259467,-0.130666 -1.683336,0.316659 -0.905601,1.27883 -1.016804,0.144396 -0.547942,2.808491 -1.858157,2.209169 -1.29965,0.585699 -0.960164,2.063728 -0.386753,2.799785 0.04424,0.692585 -0.601496,0.631058 -0.827846,0.0059 -0.929451,0.549839 -1.870401,2.179535 -1.133922,3.489065 -0.03943,0.960577 -2.143412,2.1151 -1.963365,2.492205 0.995301,-0.28477 1.466581,1.295658 0.56047,1.264941 -0.293567,0.376185 -0.234354,0.354328 0.213041,0.2147 0.52811,9.73e-4 0.533462,0.614028 1.127463,0.466012 1.218464,-0.639117 1.124575,1.836227 0.241026,1.976705 0.320891,0.592497 0.960995,1.219721 1.25505,0.23109 0.236342,-0.501417 0.850016,-0.332075 0.906318,-1.133417 0.756634,-0.484332 -0.03024,-1.812829 0.690491,-1.305015 0.259314,-0.598299 0.897849,-0.386178 1.537446,-0.479996 0.900144,0.161579 1.22962,0.251731 1.731995,0.999108 0.746625,0.518714 1.754513,0.654077 1.449065,1.790831 -0.125267,0.328502 0.437862,1.282969 0.697763,1.720051 0.07071,0.379727 -0.252198,1.654526 0.21548,1.653886 z"
             id="path69"
             inkscape:connector-curvature="0"
             inkscape:label="path_vale" /></g><g
           transform="matrix(1.3333333,0,0,-1.3333333,200,200)"
           id="g71"><path
             style="fill:#cccccc;fill-opacity:1;stroke:#6e6e6e;stroke-width:0.2;stroke-opacity:1"
             d="m -56.657986,-72.552983 c 0.07182,-0.995276 -0.118408,-1.571517 -0.687374,-2.377045 0.08724,-0.5475 -0.129884,-1.084739 -0.366735,-1.726836 -0.965199,-0.126906 -1.417397,-1.008445 -1.987684,-1.482248 -0.585256,0.09116 -1.410947,-0.17403 -2.007259,-0.02998 -0.420035,-0.06935 -0.281146,0.8366 -0.890944,0.27596 0.868252,0.906359 -1.403353,2.073803 -0.03942,2.672865 0.772029,0.410361 0.454479,1.986626 0.130306,1.723309 -0.25133,-0.222179 -0.910475,-0.0355 -0.794707,0.161056 -0.02779,0.264774 0.16649,-0.284795 0.37652,-2.35e-4 0.140994,0.227105 0.486706,-0.02963 0.801822,0.246163 0.47878,0.128541 0.578241,-0.104773 0.690093,-0.529525 0.521148,-0.280027 1.120696,0.678343 1.446648,0.375096 -0.06916,-0.474602 0.445525,-0.978514 0.772845,-1.197923 1.102938,-0.23372 2.370174,1.013218 2.223675,1.872719 0.325163,0.03097 0.355096,1.004186 0.332212,0.01663 z"
             id="path73"
             inkscape:connector-curvature="0"
             inkscape:label="path_st_sampson" /></g><g
           transform="matrix(1.3333333,0,0,-1.3333333,200,200)"
           id="g75"><path
             style="fill:#cccccc;fill-opacity:1;stroke:#6e6e6e;stroke-width:0.2;stroke-opacity:1"
             d="m -50.434518,-76.85615 c -0.266648,-0.779221 -0.165273,-2.960466 1.373463,-1.728916 0.925687,0.568782 0.635947,-1.040935 1.44052,-0.788276 1.728301,-0.628511 4.192223,-0.143373 5.110868,-1.958216 0.627767,-0.204862 0.736826,-1.047516 1.147932,-0.771876 -0.02462,0.61492 1.098154,0.113565 0.427371,0.150021 -0.359699,-0.68977 1.54932,-0.899574 1.799192,-0.991161 -0.07638,0.196653 -0.0038,-0.717211 0.57007,-0.713862 0.426368,0.474099 1.055604,0.192447 1.456803,-0.120903 0.02377,-1.006934 -0.767796,-1.580824 -1.566862,-2.01498 -0.89378,-0.0446 -1.831325,0.548482 -2.645384,-0.04906 -0.481573,0.05174 -0.738769,-0.578939 -0.863889,-0.787547 -0.06297,0.260601 -0.351654,0.508283 -0.582181,0.440375 -0.525291,-0.144009 -1.041354,-0.270717 -1.544422,-0.193365 -0.6589,-0.198638 -1.127005,-0.696392 -1.60826,-1.103575 -0.885503,-0.350452 -1.38273,-1.692348 -2.028538,-1.946651 -0.699858,0.275911 -1.330967,-0.511666 -1.563009,0.304192 -0.521646,-0.162744 -0.569956,0.8674 -1.088986,0.190949 -1.208267,-0.443316 -2.299998,0.204995 -3.380677,0.534526 -0.556707,-0.194759 -0.839294,-0.485547 -1.637518,-0.282689 -1.355408,0.255147 -3.058246,-0.463434 -3.782227,0.547787 0.375554,0.561492 1.04191,0.851482 1.649075,0.91967 0.0144,0.385399 -0.764168,1.978773 0.453406,2.053087 -0.993617,0.282501 -0.898231,2.059809 -1.988963,1.655652 -0.977467,0.243145 0.388313,0.966505 -0.0701,1.712907 0.718935,0.373051 -0.04738,1.379935 0.123758,1.938565 1.008809,-0.03142 0.981804,1.093169 1.700767,1.00047 0.139296,1.052489 1.732387,1.122918 2.218209,1.506892 0.861591,-0.469771 1.026269,0.643932 1.79581,0.952623 0.306954,0.331547 0.821996,-0.904796 1.495347,-0.392051 0.700329,0.118426 1.291192,1.514394 1.38124,0.193455 0.05926,-0.08925 0.192331,-0.141526 0.207181,-0.258045 z"
             id="path77"
             inkscape:connector-curvature="0"
             inkscape:label="path_st_sampson" /></g><g
           transform="matrix(1.3333333,0,0,-1.3333333,200,200)"
           id="g79"><path
             style="fill:#cccccc;fill-opacity:1;stroke:#6e6e6e;stroke-width:0.2;stroke-opacity:1"
             d="m -41.950764,-81.603897 c -1.075449,0.24748 -1.115078,1.716019 -2.400023,1.53028 -1.250345,0.528105 -3.364169,0.248501 -3.965262,1.221606 -0.379318,1.106552 -2.6015,-1.126417 -2.24864,1.149007 0.361119,0.815531 -0.216238,1.34307 -0.469645,2.049795 -0.747253,0.332123 -0.658776,1.095451 -0.188476,1.645968 0.145472,0.808208 -0.413963,1.405064 0.418305,1.675917 0.617424,0.832901 0.171969,2.009336 0.26636,2.977169 -0.351855,0.188155 -0.991545,0.281567 -1.178493,0.857076 -0.824632,-0.270674 -2.019396,-0.0846 -1.950957,0.577119 0.07475,0.352887 0.255269,0.621685 0.896321,0.616801 0.29259,0.352231 1.154052,-0.140287 1.241272,0.607902 0.105434,0.96409 1.040625,-0.38063 1.760816,0.07389 0.507425,0.214812 0.55382,0.447843 0.658821,0.658429 0.466886,-0.02801 0.264733,-0.66411 0.517861,-0.392826 -0.137799,-0.915447 1.265774,-0.880345 1.6879,-0.04857 0.126461,-0.03535 0.473727,0.16216 0.314756,-0.108169 -0.19809,-0.006 -0.165365,-0.378063 -0.194672,-0.442147 -0.116857,-0.132788 -0.332911,-0.429126 -0.524495,-0.675256 -1.174657,-1.072597 0.522902,-1.805318 1.300866,-2.205093 0.85759,-0.211971 2.104532,-0.747153 2.657776,0.110322 -0.09072,0.592834 0.268494,0.69086 0.650192,0.566627 0.827727,0.365258 0.314109,1.027888 0.293802,1.41605 0.0027,0.03485 0.138717,0.126171 0.107777,0.253278 0.07742,-0.225557 0.696126,0.441095 0.89816,0.885903 0.125328,0.495384 -0.696099,0.797947 -0.137119,1.076369 0.437535,-0.293278 0.680048,-0.453094 0.832124,-0.831563 -0.526404,-0.391853 0.36368,-0.902162 0.225954,-1.214038 0.276645,-0.731905 1.424588,-0.331467 1.901495,-0.846809 0.491964,-0.287815 0.971483,0.203031 1.08062,0.495617 0.673668,-0.02754 0.594025,0.498214 0.574118,0.648207 0.19001,-0.100693 0.309449,-0.536854 0.589169,-0.220442 0.02245,-0.26823 0.35716,0.203615 0.254989,-0.168212 0.65668,-0.09402 -0.450614,-0.322437 0.04475,-0.939681 0.06136,-0.464424 0.757399,-0.570728 0.446963,-0.691983 -0.244983,0.205404 -0.20432,-0.09146 -0.394222,0.268917 -0.05336,0.663527 -0.664515,0.220538 -0.368024,-0.222629 -0.318439,-0.19324 0.106159,-0.960761 0.396313,-0.556361 0.128528,0.01638 0.0675,-0.0465 0.377927,0.122395 0.240107,0.03149 -0.173072,0.454113 0.123483,0.20001 0.02208,-0.199882 0.07676,-0.315576 -0.164971,-0.579659 -0.532279,-0.554346 0.549425,-1.258821 0.659943,-1.299094 -0.517276,-0.177928 -0.06113,-0.954222 0.230143,-1.382092 0.117779,-0.167445 0.04798,-0.569346 -0.251271,-0.642913 0.520072,-1.17881 -0.378118,-2.197716 -0.397648,-3.474088 -0.0654,-0.251952 0.04371,-0.979144 -0.297217,-0.618427 -0.04538,0.609998 -1.060806,0.37116 -1.519317,0.278612 -0.615702,-0.4429 0.168551,-1.163348 0.436814,-1.426927 0.06777,0.0037 -1.521248,-0.891485 -0.557768,-1.374439 0.618721,-0.921132 -0.532904,-1.310724 -0.848665,-1.97144 -0.400141,-0.188939 -0.897967,-0.266816 -0.677023,-0.673265 0.411862,0.696031 -0.769808,1.277786 -0.753163,0.633291 0.417957,-0.439565 -0.06825,-0.154593 -0.289058,0.250245 -0.752331,0.255932 -1.390107,0.320388 -1.636363,0.160653 -0.09822,-0.133129 -0.343238,0.122448 -0.433299,-0.0013 z"
             id="path81"
             inkscape:connector-curvature="0"
             inkscape:label="path_vale" /></g></g></g></g></svg>